<?xml version="1.0" encoding="utf-8" standalone="no"?>
<!DOCTYPE svg PUBLIC "-//W3C//DTD SVG 1.1//EN"
  "http://www.w3.org/Graphics/SVG/1.1/DTD/svg11.dtd">
<svg xmlns:xlink="http://www.w3.org/1999/xlink" width="914.4pt" height="360pt" viewBox="0 0 914.4 360" xmlns="http://www.w3.org/2000/svg" version="1.1">
 <metadata>
  <rdf:RDF xmlns:dc="http://purl.org/dc/elements/1.1/" xmlns:cc="http://creativecommons.org/ns#" xmlns:rdf="http://www.w3.org/1999/02/22-rdf-syntax-ns#">
   <cc:Work>
    <dc:type rdf:resource="http://purl.org/dc/dcmitype/StillImage"/>
    <dc:date>2024-05-11T09:30:58.276183</dc:date>
    <dc:format>image/svg+xml</dc:format>
    <dc:creator>
     <cc:Agent>
      <dc:title>Matplotlib v3.8.4, https://matplotlib.org/</dc:title>
     </cc:Agent>
    </dc:creator>
   </cc:Work>
  </rdf:RDF>
 </metadata>
 <defs>
  <style type="text/css">*{stroke-linejoin: round; stroke-linecap: butt}</style>
 </defs>
 <g id="figure_1">
  <g id="patch_1">
   <path d="M 51 359 
L 863.4 359 
Q 913.4 359 913.4 309 
L 913.4 51 
Q 913.4 1 863.4 1 
L 51 1 
Q 1 1 1 51 
L 1 309 
Q 1 359 51 359 
z
" style="fill: #161b22; stroke: #30363d; stroke-width: 2; stroke-linejoin: miter"/>
  </g>
  <g id="axes_1">
   <g id="patch_2">
    <path d="M 45.08 312.369006 
L 898.387502 312.369006 
L 898.387502 56.032 
L 45.08 56.032 
z
" style="fill: #21262d"/>
   </g>
   <g id="patch_3">
    <path d="M 53.44576 312.369006 
L 65.931969 312.369006 
L 65.931969 301.649747 
L 53.44576 301.649747 
z
" clip-path="url(#p59f56a4dfa)" style="fill: #ff7f0e"/>
   </g>
   <g id="patch_4">
    <path d="M 65.931969 312.369006 
L 78.418177 312.369006 
L 78.418177 302.649723 
L 65.931969 302.649723 
z
" clip-path="url(#p59f56a4dfa)" style="fill: #1f77b4"/>
   </g>
   <g id="patch_5">
    <path d="M 78.418177 312.369006 
L 90.904386 312.369006 
L 90.904386 276.31892 
L 78.418177 276.31892 
z
" clip-path="url(#p59f56a4dfa)" style="fill: #2ca02c"/>
   </g>
   <g id="patch_6">
    <path d="M 90.904386 312.369006 
L 103.390595 312.369006 
L 103.390595 244.972034 
L 90.904386 244.972034 
z
" clip-path="url(#p59f56a4dfa)" style="fill: #9467bd"/>
   </g>
   <g id="patch_7">
    <path d="M 122.119908 312.369006 
L 134.606116 312.369006 
L 134.606116 292.762769 
L 122.119908 292.762769 
z
" clip-path="url(#p59f56a4dfa)" style="fill: #ff7f0e"/>
   </g>
   <g id="patch_8">
    <path d="M 134.606116 312.369006 
L 147.092325 312.369006 
L 147.092325 302.649723 
L 134.606116 302.649723 
z
" clip-path="url(#p59f56a4dfa)" style="fill: #1f77b4"/>
   </g>
   <g id="patch_9">
    <path d="M 147.092325 312.369006 
L 159.578534 312.369006 
L 159.578534 249.891688 
L 147.092325 249.891688 
z
" clip-path="url(#p59f56a4dfa)" style="fill: #2ca02c"/>
   </g>
   <g id="patch_10">
    <path d="M 159.578534 312.369006 
L 172.064742 312.369006 
L 172.064742 91.232676 
L 159.578534 91.232676 
z
" clip-path="url(#p59f56a4dfa)" style="fill: #9467bd"/>
   </g>
   <g id="patch_11">
    <path d="M 190.794055 312.369006 
L 203.280264 312.369006 
L 203.280264 299.301205 
L 190.794055 299.301205 
z
" clip-path="url(#p59f56a4dfa)" style="fill: #ff7f0e"/>
   </g>
   <g id="patch_12">
    <path d="M 203.280264 312.369006 
L 215.766473 312.369006 
L 215.766473 302.649723 
L 203.280264 302.649723 
z
" clip-path="url(#p59f56a4dfa)" style="fill: #1f77b4"/>
   </g>
   <g id="patch_13">
    <path d="M 215.766473 312.369006 
L 228.252682 312.369006 
L 228.252682 193.413373 
L 215.766473 193.413373 
z
" clip-path="url(#p59f56a4dfa)" style="fill: #2ca02c"/>
   </g>
   <g id="patch_14">
    <path d="M 228.252682 312.369006 
L 240.73889 312.369006 
L 240.73889 136.15651 
L 228.252682 136.15651 
z
" clip-path="url(#p59f56a4dfa)" style="fill: #9467bd"/>
   </g>
   <g id="patch_15">
    <path d="M 259.468203 312.369006 
L 271.954412 312.369006 
L 271.954412 307.271621 
L 259.468203 307.271621 
z
" clip-path="url(#p59f56a4dfa)" style="fill: #ff7f0e"/>
   </g>
   <g id="patch_16">
    <path d="M 271.954412 312.369006 
L 284.440621 312.369006 
L 284.440621 302.649723 
L 271.954412 302.649723 
z
" clip-path="url(#p59f56a4dfa)" style="fill: #1f77b4"/>
   </g>
   <g id="patch_17">
    <path d="M 284.440621 312.369006 
L 296.926829 312.369006 
L 296.926829 259.242241 
L 284.440621 259.242241 
z
" clip-path="url(#p59f56a4dfa)" style="fill: #2ca02c"/>
   </g>
   <g id="patch_18">
    <path d="M 296.926829 312.369006 
L 309.413038 312.369006 
L 309.413038 239.401469 
L 296.926829 239.401469 
z
" clip-path="url(#p59f56a4dfa)" style="fill: #9467bd"/>
   </g>
   <g id="patch_19">
    <path d="M 328.142351 312.369006 
L 340.62856 312.369006 
L 340.62856 311.978488 
L 328.142351 311.978488 
z
" clip-path="url(#p59f56a4dfa)" style="fill: #ff7f0e"/>
   </g>
   <g id="patch_20">
    <path d="M 340.62856 312.369006 
L 353.114769 312.369006 
L 353.114769 302.649723 
L 340.62856 302.649723 
z
" clip-path="url(#p59f56a4dfa)" style="fill: #1f77b4"/>
   </g>
   <g id="patch_21">
    <path d="M 353.114769 312.369006 
L 365.600977 312.369006 
L 365.600977 234.489998 
L 353.114769 234.489998 
z
" clip-path="url(#p59f56a4dfa)" style="fill: #2ca02c"/>
   </g>
   <g id="patch_22">
    <path d="M 365.600977 312.369006 
L 378.087186 312.369006 
L 378.087186 91.021418 
L 365.600977 91.021418 
z
" clip-path="url(#p59f56a4dfa)" style="fill: #9467bd"/>
   </g>
   <g id="patch_23">
    <path d="M 396.816499 312.369006 
L 409.302708 312.369006 
L 409.302708 310.415063 
L 396.816499 310.415063 
z
" clip-path="url(#p59f56a4dfa)" style="fill: #ff7f0e"/>
   </g>
   <g id="patch_24">
    <path d="M 409.302708 312.369006 
L 421.788916 312.369006 
L 421.788916 302.649723 
L 409.302708 302.649723 
z
" clip-path="url(#p59f56a4dfa)" style="fill: #1f77b4"/>
   </g>
   <g id="patch_25">
    <path d="M 421.788916 312.369006 
L 434.275125 312.369006 
L 434.275125 287.854759 
L 421.788916 287.854759 
z
" clip-path="url(#p59f56a4dfa)" style="fill: #2ca02c"/>
   </g>
   <g id="patch_26">
    <path d="M 434.275125 312.369006 
L 446.761334 312.369006 
L 446.761334 275.005018 
L 434.275125 275.005018 
z
" clip-path="url(#p59f56a4dfa)" style="fill: #9467bd"/>
   </g>
   <g id="patch_27">
    <path d="M 465.490647 312.369006 
L 477.976855 312.369006 
L 477.976855 296.715679 
L 465.490647 296.715679 
z
" clip-path="url(#p59f56a4dfa)" style="fill: #ff7f0e"/>
   </g>
   <g id="patch_28">
    <path d="M 477.976855 312.369006 
L 490.463064 312.369006 
L 490.463064 302.649723 
L 477.976855 302.649723 
z
" clip-path="url(#p59f56a4dfa)" style="fill: #1f77b4"/>
   </g>
   <g id="patch_29">
    <path d="M 490.463064 312.369006 
L 502.949273 312.369006 
L 502.949273 215.116908 
L 490.463064 215.116908 
z
" clip-path="url(#p59f56a4dfa)" style="fill: #2ca02c"/>
   </g>
   <g id="patch_30">
    <path d="M 502.949273 312.369006 
L 515.435482 312.369006 
L 515.435482 196.650307 
L 502.949273 196.650307 
z
" clip-path="url(#p59f56a4dfa)" style="fill: #9467bd"/>
   </g>
   <g id="patch_31">
    <path d="M 534.164795 312.369006 
L 546.651003 312.369006 
L 546.651003 302.649723 
L 534.164795 302.649723 
z
" clip-path="url(#p59f56a4dfa)" style="fill: #1f77b4"/>
   </g>
   <g id="patch_32">
    <path d="M 546.651003 312.369006 
L 559.137212 312.369006 
L 559.137212 293.770564 
L 546.651003 293.770564 
z
" clip-path="url(#p59f56a4dfa)" style="fill: #2ca02c"/>
   </g>
   <g id="patch_33">
    <path d="M 559.137212 312.369006 
L 571.623421 312.369006 
L 571.623421 257.067645 
L 559.137212 257.067645 
z
" clip-path="url(#p59f56a4dfa)" style="fill: #9467bd"/>
   </g>
   <g id="patch_34">
    <path d="M 590.352734 312.369006 
L 602.838942 312.369006 
L 602.838942 308.896511 
L 590.352734 308.896511 
z
" clip-path="url(#p59f56a4dfa)" style="fill: #ff7f0e"/>
   </g>
   <g id="patch_35">
    <path d="M 602.838942 312.369006 
L 615.325151 312.369006 
L 615.325151 302.649723 
L 602.838942 302.649723 
z
" clip-path="url(#p59f56a4dfa)" style="fill: #1f77b4"/>
   </g>
   <g id="patch_36">
    <path d="M 615.325151 312.369006 
L 627.81136 312.369006 
L 627.81136 242.093828 
L 615.325151 242.093828 
z
" clip-path="url(#p59f56a4dfa)" style="fill: #2ca02c"/>
   </g>
   <g id="patch_37">
    <path d="M 627.81136 312.369006 
L 640.297569 312.369006 
L 640.297569 113.179622 
L 627.81136 113.179622 
z
" clip-path="url(#p59f56a4dfa)" style="fill: #9467bd"/>
   </g>
   <g id="patch_38">
    <path d="M 659.026882 312.369006 
L 671.51309 312.369006 
L 671.51309 302.338282 
L 659.026882 302.338282 
z
" clip-path="url(#p59f56a4dfa)" style="fill: #ff7f0e"/>
   </g>
   <g id="patch_39">
    <path d="M 671.51309 312.369006 
L 683.999299 312.369006 
L 683.999299 302.649723 
L 671.51309 302.649723 
z
" clip-path="url(#p59f56a4dfa)" style="fill: #1f77b4"/>
   </g>
   <g id="patch_40">
    <path d="M 683.999299 312.369006 
L 696.485508 312.369006 
L 696.485508 292.966851 
L 683.999299 292.966851 
z
" clip-path="url(#p59f56a4dfa)" style="fill: #2ca02c"/>
   </g>
   <g id="patch_41">
    <path d="M 696.485508 312.369006 
L 708.971716 312.369006 
L 708.971716 290.646338 
L 696.485508 290.646338 
z
" clip-path="url(#p59f56a4dfa)" style="fill: #9467bd"/>
   </g>
   <g id="patch_42">
    <path d="M 727.701029 312.369006 
L 740.187238 312.369006 
L 740.187238 298.385952 
L 727.701029 298.385952 
z
" clip-path="url(#p59f56a4dfa)" style="fill: #ff7f0e"/>
   </g>
   <g id="patch_43">
    <path d="M 740.187238 312.369006 
L 752.673447 312.369006 
L 752.673447 302.649723 
L 740.187238 302.649723 
z
" clip-path="url(#p59f56a4dfa)" style="fill: #1f77b4"/>
   </g>
   <g id="patch_44">
    <path d="M 752.673447 312.369006 
L 765.159655 312.369006 
L 765.159655 285.885836 
L 752.673447 285.885836 
z
" clip-path="url(#p59f56a4dfa)" style="fill: #2ca02c"/>
   </g>
   <g id="patch_45">
    <path d="M 765.159655 312.369006 
L 777.645864 312.369006 
L 777.645864 277.050351 
L 765.159655 277.050351 
z
" clip-path="url(#p59f56a4dfa)" style="fill: #9467bd"/>
   </g>
   <g id="patch_46">
    <path d="M 796.375177 312.369006 
L 808.861386 312.369006 
L 808.861386 302.649723 
L 796.375177 302.649723 
z
" clip-path="url(#p59f56a4dfa)" style="fill: #1f77b4"/>
   </g>
   <g id="patch_47">
    <path d="M 808.861386 312.369006 
L 821.347595 312.369006 
L 821.347595 195.37352 
L 808.861386 195.37352 
z
" clip-path="url(#p59f56a4dfa)" style="fill: #2ca02c"/>
   </g>
   <g id="patch_48">
    <path d="M 821.347595 312.369006 
L 833.833803 312.369006 
L 833.833803 145.826026 
L 821.347595 145.826026 
z
" clip-path="url(#p59f56a4dfa)" style="fill: #9467bd"/>
   </g>
   <g id="patch_49">
    <path d="M 852.563116 312.369006 
L 865.049325 312.369006 
L 865.049325 302.649723 
L 852.563116 302.649723 
z
" clip-path="url(#p59f56a4dfa)" style="fill: #1f77b4"/>
   </g>
   <g id="patch_50">
    <path d="M 865.049325 312.369006 
L 877.535534 312.369006 
L 877.535534 195.008263 
L 865.049325 195.008263 
z
" clip-path="url(#p59f56a4dfa)" style="fill: #2ca02c"/>
   </g>
   <g id="patch_51">
    <path d="M 877.535534 312.369006 
L 890.021742 312.369006 
L 890.021742 145.35702 
L 877.535534 145.35702 
z
" clip-path="url(#p59f56a4dfa)" style="fill: #9467bd"/>
   </g>
   <g id="matplotlib.axis_1">
    <g id="xtick_1">
     <g id="line2d_1">
      <defs>
       <path id="m863e1baac7" d="M 0 0 
L 0 3.5 
" style="stroke: #ced0d6; stroke-width: 0.8"/>
      </defs>
      <g>
       <use xlink:href="#m863e1baac7" x="78.418177" y="312.369006" style="fill: #ced0d6; stroke: #ced0d6; stroke-width: 0.8"/>
      </g>
     </g>
     <g id="text_1">
      <!-- Instantiation -->
      <g style="fill: #ced0d6" transform="translate(48.771345 342.97895) rotate(-15) scale(0.1 -0.1)">
       <defs>
        <path id="DejaVuSans-49" d="M 628 4666 
L 1259 4666 
L 1259 0 
L 628 0 
L 628 4666 
z
" transform="scale(0.015625)"/>
        <path id="DejaVuSans-6e" d="M 3513 2113 
L 3513 0 
L 2938 0 
L 2938 2094 
Q 2938 2591 2744 2837 
Q 2550 3084 2163 3084 
Q 1697 3084 1428 2787 
Q 1159 2491 1159 1978 
L 1159 0 
L 581 0 
L 581 3500 
L 1159 3500 
L 1159 2956 
Q 1366 3272 1645 3428 
Q 1925 3584 2291 3584 
Q 2894 3584 3203 3211 
Q 3513 2838 3513 2113 
z
" transform="scale(0.015625)"/>
        <path id="DejaVuSans-73" d="M 2834 3397 
L 2834 2853 
Q 2591 2978 2328 3040 
Q 2066 3103 1784 3103 
Q 1356 3103 1142 2972 
Q 928 2841 928 2578 
Q 928 2378 1081 2264 
Q 1234 2150 1697 2047 
L 1894 2003 
Q 2506 1872 2764 1633 
Q 3022 1394 3022 966 
Q 3022 478 2636 193 
Q 2250 -91 1575 -91 
Q 1294 -91 989 -36 
Q 684 19 347 128 
L 347 722 
Q 666 556 975 473 
Q 1284 391 1588 391 
Q 1994 391 2212 530 
Q 2431 669 2431 922 
Q 2431 1156 2273 1281 
Q 2116 1406 1581 1522 
L 1381 1569 
Q 847 1681 609 1914 
Q 372 2147 372 2553 
Q 372 3047 722 3315 
Q 1072 3584 1716 3584 
Q 2034 3584 2315 3537 
Q 2597 3491 2834 3397 
z
" transform="scale(0.015625)"/>
        <path id="DejaVuSans-74" d="M 1172 4494 
L 1172 3500 
L 2356 3500 
L 2356 3053 
L 1172 3053 
L 1172 1153 
Q 1172 725 1289 603 
Q 1406 481 1766 481 
L 2356 481 
L 2356 0 
L 1766 0 
Q 1100 0 847 248 
Q 594 497 594 1153 
L 594 3053 
L 172 3053 
L 172 3500 
L 594 3500 
L 594 4494 
L 1172 4494 
z
" transform="scale(0.015625)"/>
        <path id="DejaVuSans-61" d="M 2194 1759 
Q 1497 1759 1228 1600 
Q 959 1441 959 1056 
Q 959 750 1161 570 
Q 1363 391 1709 391 
Q 2188 391 2477 730 
Q 2766 1069 2766 1631 
L 2766 1759 
L 2194 1759 
z
M 3341 1997 
L 3341 0 
L 2766 0 
L 2766 531 
Q 2569 213 2275 61 
Q 1981 -91 1556 -91 
Q 1019 -91 701 211 
Q 384 513 384 1019 
Q 384 1609 779 1909 
Q 1175 2209 1959 2209 
L 2766 2209 
L 2766 2266 
Q 2766 2663 2505 2880 
Q 2244 3097 1772 3097 
Q 1472 3097 1187 3025 
Q 903 2953 641 2809 
L 641 3341 
Q 956 3463 1253 3523 
Q 1550 3584 1831 3584 
Q 2591 3584 2966 3190 
Q 3341 2797 3341 1997 
z
" transform="scale(0.015625)"/>
        <path id="DejaVuSans-69" d="M 603 3500 
L 1178 3500 
L 1178 0 
L 603 0 
L 603 3500 
z
M 603 4863 
L 1178 4863 
L 1178 4134 
L 603 4134 
L 603 4863 
z
" transform="scale(0.015625)"/>
        <path id="DejaVuSans-6f" d="M 1959 3097 
Q 1497 3097 1228 2736 
Q 959 2375 959 1747 
Q 959 1119 1226 758 
Q 1494 397 1959 397 
Q 2419 397 2687 759 
Q 2956 1122 2956 1747 
Q 2956 2369 2687 2733 
Q 2419 3097 1959 3097 
z
M 1959 3584 
Q 2709 3584 3137 3096 
Q 3566 2609 3566 1747 
Q 3566 888 3137 398 
Q 2709 -91 1959 -91 
Q 1206 -91 779 398 
Q 353 888 353 1747 
Q 353 2609 779 3096 
Q 1206 3584 1959 3584 
z
" transform="scale(0.015625)"/>
       </defs>
       <use xlink:href="#DejaVuSans-49"/>
       <use xlink:href="#DejaVuSans-6e" x="29.492188"/>
       <use xlink:href="#DejaVuSans-73" x="92.871094"/>
       <use xlink:href="#DejaVuSans-74" x="144.970703"/>
       <use xlink:href="#DejaVuSans-61" x="184.179688"/>
       <use xlink:href="#DejaVuSans-6e" x="245.458984"/>
       <use xlink:href="#DejaVuSans-74" x="308.837891"/>
       <use xlink:href="#DejaVuSans-69" x="348.046875"/>
       <use xlink:href="#DejaVuSans-61" x="375.830078"/>
       <use xlink:href="#DejaVuSans-74" x="437.109375"/>
       <use xlink:href="#DejaVuSans-69" x="476.318359"/>
       <use xlink:href="#DejaVuSans-6f" x="504.101562"/>
       <use xlink:href="#DejaVuSans-6e" x="565.283203"/>
      </g>
     </g>
    </g>
    <g id="xtick_2">
     <g id="line2d_2">
      <g>
       <use xlink:href="#m863e1baac7" x="147.092325" y="312.369006" style="fill: #ced0d6; stroke: #ced0d6; stroke-width: 0.8"/>
      </g>
     </g>
     <g id="text_2">
      <!-- Copy -->
      <g style="fill: #ced0d6" transform="translate(135.554338 333.274449) rotate(-15) scale(0.1 -0.1)">
       <defs>
        <path id="DejaVuSans-43" d="M 4122 4306 
L 4122 3641 
Q 3803 3938 3442 4084 
Q 3081 4231 2675 4231 
Q 1875 4231 1450 3742 
Q 1025 3253 1025 2328 
Q 1025 1406 1450 917 
Q 1875 428 2675 428 
Q 3081 428 3442 575 
Q 3803 722 4122 1019 
L 4122 359 
Q 3791 134 3420 21 
Q 3050 -91 2638 -91 
Q 1578 -91 968 557 
Q 359 1206 359 2328 
Q 359 3453 968 4101 
Q 1578 4750 2638 4750 
Q 3056 4750 3426 4639 
Q 3797 4528 4122 4306 
z
" transform="scale(0.015625)"/>
        <path id="DejaVuSans-70" d="M 1159 525 
L 1159 -1331 
L 581 -1331 
L 581 3500 
L 1159 3500 
L 1159 2969 
Q 1341 3281 1617 3432 
Q 1894 3584 2278 3584 
Q 2916 3584 3314 3078 
Q 3713 2572 3713 1747 
Q 3713 922 3314 415 
Q 2916 -91 2278 -91 
Q 1894 -91 1617 61 
Q 1341 213 1159 525 
z
M 3116 1747 
Q 3116 2381 2855 2742 
Q 2594 3103 2138 3103 
Q 1681 3103 1420 2742 
Q 1159 2381 1159 1747 
Q 1159 1113 1420 752 
Q 1681 391 2138 391 
Q 2594 391 2855 752 
Q 3116 1113 3116 1747 
z
" transform="scale(0.015625)"/>
        <path id="DejaVuSans-79" d="M 2059 -325 
Q 1816 -950 1584 -1140 
Q 1353 -1331 966 -1331 
L 506 -1331 
L 506 -850 
L 844 -850 
Q 1081 -850 1212 -737 
Q 1344 -625 1503 -206 
L 1606 56 
L 191 3500 
L 800 3500 
L 1894 763 
L 2988 3500 
L 3597 3500 
L 2059 -325 
z
" transform="scale(0.015625)"/>
       </defs>
       <use xlink:href="#DejaVuSans-43"/>
       <use xlink:href="#DejaVuSans-6f" x="69.824219"/>
       <use xlink:href="#DejaVuSans-70" x="131.005859"/>
       <use xlink:href="#DejaVuSans-79" x="194.482422"/>
      </g>
     </g>
    </g>
    <g id="xtick_3">
     <g id="line2d_3">
      <g>
       <use xlink:href="#m863e1baac7" x="215.766473" y="312.369006" style="fill: #ced0d6; stroke: #ced0d6; stroke-width: 0.8"/>
      </g>
     </g>
     <g id="text_3">
      <!-- Addition -->
      <g style="fill: #ced0d6" transform="translate(196.536547 337.396547) rotate(-15) scale(0.1 -0.1)">
       <defs>
        <path id="DejaVuSans-41" d="M 2188 4044 
L 1331 1722 
L 3047 1722 
L 2188 4044 
z
M 1831 4666 
L 2547 4666 
L 4325 0 
L 3669 0 
L 3244 1197 
L 1141 1197 
L 716 0 
L 50 0 
L 1831 4666 
z
" transform="scale(0.015625)"/>
        <path id="DejaVuSans-64" d="M 2906 2969 
L 2906 4863 
L 3481 4863 
L 3481 0 
L 2906 0 
L 2906 525 
Q 2725 213 2448 61 
Q 2172 -91 1784 -91 
Q 1150 -91 751 415 
Q 353 922 353 1747 
Q 353 2572 751 3078 
Q 1150 3584 1784 3584 
Q 2172 3584 2448 3432 
Q 2725 3281 2906 2969 
z
M 947 1747 
Q 947 1113 1208 752 
Q 1469 391 1925 391 
Q 2381 391 2643 752 
Q 2906 1113 2906 1747 
Q 2906 2381 2643 2742 
Q 2381 3103 1925 3103 
Q 1469 3103 1208 2742 
Q 947 2381 947 1747 
z
" transform="scale(0.015625)"/>
       </defs>
       <use xlink:href="#DejaVuSans-41"/>
       <use xlink:href="#DejaVuSans-64" x="66.658203"/>
       <use xlink:href="#DejaVuSans-64" x="130.134766"/>
       <use xlink:href="#DejaVuSans-69" x="193.611328"/>
       <use xlink:href="#DejaVuSans-74" x="221.394531"/>
       <use xlink:href="#DejaVuSans-69" x="260.603516"/>
       <use xlink:href="#DejaVuSans-6f" x="288.386719"/>
       <use xlink:href="#DejaVuSans-6e" x="349.568359"/>
      </g>
     </g>
    </g>
    <g id="xtick_4">
     <g id="line2d_4">
      <g>
       <use xlink:href="#m863e1baac7" x="284.440621" y="312.369006" style="fill: #ced0d6; stroke: #ced0d6; stroke-width: 0.8"/>
      </g>
     </g>
     <g id="text_4">
      <!-- Inplace Addition -->
      <g style="fill: #ced0d6" transform="translate(246.19554 347.586738) rotate(-15) scale(0.1 -0.1)">
       <defs>
        <path id="DejaVuSans-6c" d="M 603 4863 
L 1178 4863 
L 1178 0 
L 603 0 
L 603 4863 
z
" transform="scale(0.015625)"/>
        <path id="DejaVuSans-63" d="M 3122 3366 
L 3122 2828 
Q 2878 2963 2633 3030 
Q 2388 3097 2138 3097 
Q 1578 3097 1268 2742 
Q 959 2388 959 1747 
Q 959 1106 1268 751 
Q 1578 397 2138 397 
Q 2388 397 2633 464 
Q 2878 531 3122 666 
L 3122 134 
Q 2881 22 2623 -34 
Q 2366 -91 2075 -91 
Q 1284 -91 818 406 
Q 353 903 353 1747 
Q 353 2603 823 3093 
Q 1294 3584 2113 3584 
Q 2378 3584 2631 3529 
Q 2884 3475 3122 3366 
z
" transform="scale(0.015625)"/>
        <path id="DejaVuSans-65" d="M 3597 1894 
L 3597 1613 
L 953 1613 
Q 991 1019 1311 708 
Q 1631 397 2203 397 
Q 2534 397 2845 478 
Q 3156 559 3463 722 
L 3463 178 
Q 3153 47 2828 -22 
Q 2503 -91 2169 -91 
Q 1331 -91 842 396 
Q 353 884 353 1716 
Q 353 2575 817 3079 
Q 1281 3584 2069 3584 
Q 2775 3584 3186 3129 
Q 3597 2675 3597 1894 
z
M 3022 2063 
Q 3016 2534 2758 2815 
Q 2500 3097 2075 3097 
Q 1594 3097 1305 2825 
Q 1016 2553 972 2059 
L 3022 2063 
z
" transform="scale(0.015625)"/>
        <path id="DejaVuSans-20" transform="scale(0.015625)"/>
       </defs>
       <use xlink:href="#DejaVuSans-49"/>
       <use xlink:href="#DejaVuSans-6e" x="29.492188"/>
       <use xlink:href="#DejaVuSans-70" x="92.871094"/>
       <use xlink:href="#DejaVuSans-6c" x="156.347656"/>
       <use xlink:href="#DejaVuSans-61" x="184.130859"/>
       <use xlink:href="#DejaVuSans-63" x="245.410156"/>
       <use xlink:href="#DejaVuSans-65" x="300.390625"/>
       <use xlink:href="#DejaVuSans-20" x="361.914062"/>
       <use xlink:href="#DejaVuSans-41" x="393.701172"/>
       <use xlink:href="#DejaVuSans-64" x="460.359375"/>
       <use xlink:href="#DejaVuSans-64" x="523.835938"/>
       <use xlink:href="#DejaVuSans-69" x="587.3125"/>
       <use xlink:href="#DejaVuSans-74" x="615.095703"/>
       <use xlink:href="#DejaVuSans-69" x="654.304688"/>
       <use xlink:href="#DejaVuSans-6f" x="682.087891"/>
       <use xlink:href="#DejaVuSans-6e" x="743.269531"/>
      </g>
     </g>
    </g>
    <g id="xtick_5">
     <g id="line2d_5">
      <g>
       <use xlink:href="#m863e1baac7" x="353.114769" y="312.369006" style="fill: #ced0d6; stroke: #ced0d6; stroke-width: 0.8"/>
      </g>
     </g>
     <g id="text_5">
      <!-- Dot Product -->
      <g style="fill: #ced0d6" transform="translate(325.391487 341.948122) rotate(-15) scale(0.1 -0.1)">
       <defs>
        <path id="DejaVuSans-44" d="M 1259 4147 
L 1259 519 
L 2022 519 
Q 2988 519 3436 956 
Q 3884 1394 3884 2338 
Q 3884 3275 3436 3711 
Q 2988 4147 2022 4147 
L 1259 4147 
z
M 628 4666 
L 1925 4666 
Q 3281 4666 3915 4102 
Q 4550 3538 4550 2338 
Q 4550 1131 3912 565 
Q 3275 0 1925 0 
L 628 0 
L 628 4666 
z
" transform="scale(0.015625)"/>
        <path id="DejaVuSans-50" d="M 1259 4147 
L 1259 2394 
L 2053 2394 
Q 2494 2394 2734 2622 
Q 2975 2850 2975 3272 
Q 2975 3691 2734 3919 
Q 2494 4147 2053 4147 
L 1259 4147 
z
M 628 4666 
L 2053 4666 
Q 2838 4666 3239 4311 
Q 3641 3956 3641 3272 
Q 3641 2581 3239 2228 
Q 2838 1875 2053 1875 
L 1259 1875 
L 1259 0 
L 628 0 
L 628 4666 
z
" transform="scale(0.015625)"/>
        <path id="DejaVuSans-72" d="M 2631 2963 
Q 2534 3019 2420 3045 
Q 2306 3072 2169 3072 
Q 1681 3072 1420 2755 
Q 1159 2438 1159 1844 
L 1159 0 
L 581 0 
L 581 3500 
L 1159 3500 
L 1159 2956 
Q 1341 3275 1631 3429 
Q 1922 3584 2338 3584 
Q 2397 3584 2469 3576 
Q 2541 3569 2628 3553 
L 2631 2963 
z
" transform="scale(0.015625)"/>
        <path id="DejaVuSans-75" d="M 544 1381 
L 544 3500 
L 1119 3500 
L 1119 1403 
Q 1119 906 1312 657 
Q 1506 409 1894 409 
Q 2359 409 2629 706 
Q 2900 1003 2900 1516 
L 2900 3500 
L 3475 3500 
L 3475 0 
L 2900 0 
L 2900 538 
Q 2691 219 2414 64 
Q 2138 -91 1772 -91 
Q 1169 -91 856 284 
Q 544 659 544 1381 
z
M 1991 3584 
L 1991 3584 
z
" transform="scale(0.015625)"/>
       </defs>
       <use xlink:href="#DejaVuSans-44"/>
       <use xlink:href="#DejaVuSans-6f" x="77.001953"/>
       <use xlink:href="#DejaVuSans-74" x="138.183594"/>
       <use xlink:href="#DejaVuSans-20" x="177.392578"/>
       <use xlink:href="#DejaVuSans-50" x="209.179688"/>
       <use xlink:href="#DejaVuSans-72" x="267.732422"/>
       <use xlink:href="#DejaVuSans-6f" x="306.595703"/>
       <use xlink:href="#DejaVuSans-64" x="367.777344"/>
       <use xlink:href="#DejaVuSans-75" x="431.253906"/>
       <use xlink:href="#DejaVuSans-63" x="494.632812"/>
       <use xlink:href="#DejaVuSans-74" x="549.613281"/>
      </g>
     </g>
    </g>
    <g id="xtick_6">
     <g id="line2d_6">
      <g>
       <use xlink:href="#m863e1baac7" x="421.788916" y="312.369006" style="fill: #ced0d6; stroke: #ced0d6; stroke-width: 0.8"/>
      </g>
     </g>
     <g id="text_6">
      <!-- Equality -->
      <g style="fill: #ced0d6" transform="translate(402.929514 337.197984) rotate(-15) scale(0.1 -0.1)">
       <defs>
        <path id="DejaVuSans-45" d="M 628 4666 
L 3578 4666 
L 3578 4134 
L 1259 4134 
L 1259 2753 
L 3481 2753 
L 3481 2222 
L 1259 2222 
L 1259 531 
L 3634 531 
L 3634 0 
L 628 0 
L 628 4666 
z
" transform="scale(0.015625)"/>
        <path id="DejaVuSans-71" d="M 947 1747 
Q 947 1113 1208 752 
Q 1469 391 1925 391 
Q 2381 391 2643 752 
Q 2906 1113 2906 1747 
Q 2906 2381 2643 2742 
Q 2381 3103 1925 3103 
Q 1469 3103 1208 2742 
Q 947 2381 947 1747 
z
M 2906 525 
Q 2725 213 2448 61 
Q 2172 -91 1784 -91 
Q 1150 -91 751 415 
Q 353 922 353 1747 
Q 353 2572 751 3078 
Q 1150 3584 1784 3584 
Q 2172 3584 2448 3432 
Q 2725 3281 2906 2969 
L 2906 3500 
L 3481 3500 
L 3481 -1331 
L 2906 -1331 
L 2906 525 
z
" transform="scale(0.015625)"/>
       </defs>
       <use xlink:href="#DejaVuSans-45"/>
       <use xlink:href="#DejaVuSans-71" x="63.183594"/>
       <use xlink:href="#DejaVuSans-75" x="126.660156"/>
       <use xlink:href="#DejaVuSans-61" x="190.039062"/>
       <use xlink:href="#DejaVuSans-6c" x="251.318359"/>
       <use xlink:href="#DejaVuSans-69" x="279.101562"/>
       <use xlink:href="#DejaVuSans-74" x="306.884766"/>
       <use xlink:href="#DejaVuSans-79" x="346.09375"/>
      </g>
     </g>
    </g>
    <g id="xtick_7">
     <g id="line2d_7">
      <g>
       <use xlink:href="#m863e1baac7" x="490.463064" y="312.369006" style="fill: #ced0d6; stroke: #ced0d6; stroke-width: 0.8"/>
      </g>
     </g>
     <g id="text_7">
      <!-- Iteration -->
      <g style="fill: #ced0d6" transform="translate(470.691315 337.686909) rotate(-15) scale(0.1 -0.1)">
       <use xlink:href="#DejaVuSans-49"/>
       <use xlink:href="#DejaVuSans-74" x="29.492188"/>
       <use xlink:href="#DejaVuSans-65" x="68.701172"/>
       <use xlink:href="#DejaVuSans-72" x="130.224609"/>
       <use xlink:href="#DejaVuSans-61" x="171.337891"/>
       <use xlink:href="#DejaVuSans-74" x="232.617188"/>
       <use xlink:href="#DejaVuSans-69" x="271.826172"/>
       <use xlink:href="#DejaVuSans-6f" x="299.609375"/>
       <use xlink:href="#DejaVuSans-6e" x="360.791016"/>
      </g>
     </g>
    </g>
    <g id="xtick_8">
     <g id="line2d_8">
      <g>
       <use xlink:href="#m863e1baac7" x="552.894108" y="312.369006" style="fill: #ced0d6; stroke: #ced0d6; stroke-width: 0.8"/>
      </g>
     </g>
     <g id="text_8">
      <!-- Length -->
      <g style="fill: #ced0d6" transform="translate(536.949084 335.636173) rotate(-15) scale(0.1 -0.1)">
       <defs>
        <path id="DejaVuSans-4c" d="M 628 4666 
L 1259 4666 
L 1259 531 
L 3531 531 
L 3531 0 
L 628 0 
L 628 4666 
z
" transform="scale(0.015625)"/>
        <path id="DejaVuSans-67" d="M 2906 1791 
Q 2906 2416 2648 2759 
Q 2391 3103 1925 3103 
Q 1463 3103 1205 2759 
Q 947 2416 947 1791 
Q 947 1169 1205 825 
Q 1463 481 1925 481 
Q 2391 481 2648 825 
Q 2906 1169 2906 1791 
z
M 3481 434 
Q 3481 -459 3084 -895 
Q 2688 -1331 1869 -1331 
Q 1566 -1331 1297 -1286 
Q 1028 -1241 775 -1147 
L 775 -588 
Q 1028 -725 1275 -790 
Q 1522 -856 1778 -856 
Q 2344 -856 2625 -561 
Q 2906 -266 2906 331 
L 2906 616 
Q 2728 306 2450 153 
Q 2172 0 1784 0 
Q 1141 0 747 490 
Q 353 981 353 1791 
Q 353 2603 747 3093 
Q 1141 3584 1784 3584 
Q 2172 3584 2450 3431 
Q 2728 3278 2906 2969 
L 2906 3500 
L 3481 3500 
L 3481 434 
z
" transform="scale(0.015625)"/>
        <path id="DejaVuSans-68" d="M 3513 2113 
L 3513 0 
L 2938 0 
L 2938 2094 
Q 2938 2591 2744 2837 
Q 2550 3084 2163 3084 
Q 1697 3084 1428 2787 
Q 1159 2491 1159 1978 
L 1159 0 
L 581 0 
L 581 4863 
L 1159 4863 
L 1159 2956 
Q 1366 3272 1645 3428 
Q 1925 3584 2291 3584 
Q 2894 3584 3203 3211 
Q 3513 2838 3513 2113 
z
" transform="scale(0.015625)"/>
       </defs>
       <use xlink:href="#DejaVuSans-4c"/>
       <use xlink:href="#DejaVuSans-65" x="53.962891"/>
       <use xlink:href="#DejaVuSans-6e" x="115.486328"/>
       <use xlink:href="#DejaVuSans-67" x="178.865234"/>
       <use xlink:href="#DejaVuSans-74" x="242.341797"/>
       <use xlink:href="#DejaVuSans-68" x="281.550781"/>
      </g>
     </g>
    </g>
    <g id="xtick_9">
     <g id="line2d_9">
      <g>
       <use xlink:href="#m863e1baac7" x="615.325151" y="312.369006" style="fill: #ced0d6; stroke: #ced0d6; stroke-width: 0.8"/>
      </g>
     </g>
     <g id="text_9">
      <!-- Normalize -->
      <g style="fill: #ced0d6" transform="translate(591.71611 339.743307) rotate(-15) scale(0.1 -0.1)">
       <defs>
        <path id="DejaVuSans-4e" d="M 628 4666 
L 1478 4666 
L 3547 763 
L 3547 4666 
L 4159 4666 
L 4159 0 
L 3309 0 
L 1241 3903 
L 1241 0 
L 628 0 
L 628 4666 
z
" transform="scale(0.015625)"/>
        <path id="DejaVuSans-6d" d="M 3328 2828 
Q 3544 3216 3844 3400 
Q 4144 3584 4550 3584 
Q 5097 3584 5394 3201 
Q 5691 2819 5691 2113 
L 5691 0 
L 5113 0 
L 5113 2094 
Q 5113 2597 4934 2840 
Q 4756 3084 4391 3084 
Q 3944 3084 3684 2787 
Q 3425 2491 3425 1978 
L 3425 0 
L 2847 0 
L 2847 2094 
Q 2847 2600 2669 2842 
Q 2491 3084 2119 3084 
Q 1678 3084 1418 2786 
Q 1159 2488 1159 1978 
L 1159 0 
L 581 0 
L 581 3500 
L 1159 3500 
L 1159 2956 
Q 1356 3278 1631 3431 
Q 1906 3584 2284 3584 
Q 2666 3584 2933 3390 
Q 3200 3197 3328 2828 
z
" transform="scale(0.015625)"/>
        <path id="DejaVuSans-7a" d="M 353 3500 
L 3084 3500 
L 3084 2975 
L 922 459 
L 3084 459 
L 3084 0 
L 275 0 
L 275 525 
L 2438 3041 
L 353 3041 
L 353 3500 
z
" transform="scale(0.015625)"/>
       </defs>
       <use xlink:href="#DejaVuSans-4e"/>
       <use xlink:href="#DejaVuSans-6f" x="74.804688"/>
       <use xlink:href="#DejaVuSans-72" x="135.986328"/>
       <use xlink:href="#DejaVuSans-6d" x="175.349609"/>
       <use xlink:href="#DejaVuSans-61" x="272.761719"/>
       <use xlink:href="#DejaVuSans-6c" x="334.041016"/>
       <use xlink:href="#DejaVuSans-69" x="361.824219"/>
       <use xlink:href="#DejaVuSans-7a" x="389.607422"/>
       <use xlink:href="#DejaVuSans-65" x="442.097656"/>
      </g>
     </g>
    </g>
    <g id="xtick_10">
     <g id="line2d_10">
      <g>
       <use xlink:href="#m863e1baac7" x="683.999299" y="312.369006" style="fill: #ced0d6; stroke: #ced0d6; stroke-width: 0.8"/>
      </g>
     </g>
     <g id="text_10">
      <!-- Get Item -->
      <g style="fill: #ced0d6" transform="translate(663.577059 338.035506) rotate(-15) scale(0.1 -0.1)">
       <defs>
        <path id="DejaVuSans-47" d="M 3809 666 
L 3809 1919 
L 2778 1919 
L 2778 2438 
L 4434 2438 
L 4434 434 
Q 4069 175 3628 42 
Q 3188 -91 2688 -91 
Q 1594 -91 976 548 
Q 359 1188 359 2328 
Q 359 3472 976 4111 
Q 1594 4750 2688 4750 
Q 3144 4750 3555 4637 
Q 3966 4525 4313 4306 
L 4313 3634 
Q 3963 3931 3569 4081 
Q 3175 4231 2741 4231 
Q 1884 4231 1454 3753 
Q 1025 3275 1025 2328 
Q 1025 1384 1454 906 
Q 1884 428 2741 428 
Q 3075 428 3337 486 
Q 3600 544 3809 666 
z
" transform="scale(0.015625)"/>
       </defs>
       <use xlink:href="#DejaVuSans-47"/>
       <use xlink:href="#DejaVuSans-65" x="77.490234"/>
       <use xlink:href="#DejaVuSans-74" x="139.013672"/>
       <use xlink:href="#DejaVuSans-20" x="178.222656"/>
       <use xlink:href="#DejaVuSans-49" x="210.009766"/>
       <use xlink:href="#DejaVuSans-74" x="239.501953"/>
       <use xlink:href="#DejaVuSans-65" x="278.710938"/>
       <use xlink:href="#DejaVuSans-6d" x="340.234375"/>
      </g>
     </g>
    </g>
    <g id="xtick_11">
     <g id="line2d_11">
      <g>
       <use xlink:href="#m863e1baac7" x="752.673447" y="312.369006" style="fill: #ced0d6; stroke: #ced0d6; stroke-width: 0.8"/>
      </g>
     </g>
     <g id="text_11">
      <!-- Set Item -->
      <g style="fill: #ced0d6" transform="translate(732.927355 337.673159) rotate(-15) scale(0.1 -0.1)">
       <defs>
        <path id="DejaVuSans-53" d="M 3425 4513 
L 3425 3897 
Q 3066 4069 2747 4153 
Q 2428 4238 2131 4238 
Q 1616 4238 1336 4038 
Q 1056 3838 1056 3469 
Q 1056 3159 1242 3001 
Q 1428 2844 1947 2747 
L 2328 2669 
Q 3034 2534 3370 2195 
Q 3706 1856 3706 1288 
Q 3706 609 3251 259 
Q 2797 -91 1919 -91 
Q 1588 -91 1214 -16 
Q 841 59 441 206 
L 441 856 
Q 825 641 1194 531 
Q 1563 422 1919 422 
Q 2459 422 2753 634 
Q 3047 847 3047 1241 
Q 3047 1584 2836 1778 
Q 2625 1972 2144 2069 
L 1759 2144 
Q 1053 2284 737 2584 
Q 422 2884 422 3419 
Q 422 4038 858 4394 
Q 1294 4750 2059 4750 
Q 2388 4750 2728 4690 
Q 3069 4631 3425 4513 
z
" transform="scale(0.015625)"/>
       </defs>
       <use xlink:href="#DejaVuSans-53"/>
       <use xlink:href="#DejaVuSans-65" x="63.476562"/>
       <use xlink:href="#DejaVuSans-74" x="125"/>
       <use xlink:href="#DejaVuSans-20" x="164.208984"/>
       <use xlink:href="#DejaVuSans-49" x="195.996094"/>
       <use xlink:href="#DejaVuSans-74" x="225.488281"/>
       <use xlink:href="#DejaVuSans-65" x="264.697266"/>
       <use xlink:href="#DejaVuSans-6d" x="326.220703"/>
      </g>
     </g>
    </g>
    <g id="xtick_12">
     <g id="line2d_12">
      <g>
       <use xlink:href="#m863e1baac7" x="815.10449" y="312.369006" style="fill: #ced0d6; stroke: #ced0d6; stroke-width: 0.8"/>
      </g>
     </g>
     <g id="text_12">
      <!-- Swizzle Get -->
      <g style="fill: #ced0d6" transform="translate(787.935862 341.650885) rotate(-15) scale(0.1 -0.1)">
       <defs>
        <path id="DejaVuSans-77" d="M 269 3500 
L 844 3500 
L 1563 769 
L 2278 3500 
L 2956 3500 
L 3675 769 
L 4391 3500 
L 4966 3500 
L 4050 0 
L 3372 0 
L 2619 2869 
L 1863 0 
L 1184 0 
L 269 3500 
z
" transform="scale(0.015625)"/>
       </defs>
       <use xlink:href="#DejaVuSans-53"/>
       <use xlink:href="#DejaVuSans-77" x="63.476562"/>
       <use xlink:href="#DejaVuSans-69" x="145.263672"/>
       <use xlink:href="#DejaVuSans-7a" x="173.046875"/>
       <use xlink:href="#DejaVuSans-7a" x="225.537109"/>
       <use xlink:href="#DejaVuSans-6c" x="278.027344"/>
       <use xlink:href="#DejaVuSans-65" x="305.810547"/>
       <use xlink:href="#DejaVuSans-20" x="367.333984"/>
       <use xlink:href="#DejaVuSans-47" x="399.121094"/>
       <use xlink:href="#DejaVuSans-65" x="476.611328"/>
       <use xlink:href="#DejaVuSans-74" x="538.134766"/>
      </g>
     </g>
    </g>
    <g id="xtick_13">
     <g id="line2d_13">
      <g>
       <use xlink:href="#m863e1baac7" x="871.292429" y="312.369006" style="fill: #ced0d6; stroke: #ced0d6; stroke-width: 0.8"/>
      </g>
     </g>
     <g id="text_13">
      <!-- Swizzle Set -->
      <g style="fill: #ced0d6" transform="translate(844.799949 341.288538) rotate(-15) scale(0.1 -0.1)">
       <use xlink:href="#DejaVuSans-53"/>
       <use xlink:href="#DejaVuSans-77" x="63.476562"/>
       <use xlink:href="#DejaVuSans-69" x="145.263672"/>
       <use xlink:href="#DejaVuSans-7a" x="173.046875"/>
       <use xlink:href="#DejaVuSans-7a" x="225.537109"/>
       <use xlink:href="#DejaVuSans-6c" x="278.027344"/>
       <use xlink:href="#DejaVuSans-65" x="305.810547"/>
       <use xlink:href="#DejaVuSans-20" x="367.333984"/>
       <use xlink:href="#DejaVuSans-53" x="399.121094"/>
       <use xlink:href="#DejaVuSans-65" x="462.597656"/>
       <use xlink:href="#DejaVuSans-74" x="524.121094"/>
      </g>
     </g>
    </g>
   </g>
   <g id="matplotlib.axis_2">
    <g id="ytick_1">
     <g id="line2d_14">
      <defs>
       <path id="m5feccf414c" d="M 0 0 
L -3.5 0 
" style="stroke: #ced0d6; stroke-width: 0.8"/>
      </defs>
      <g>
       <use xlink:href="#m5feccf414c" x="45.08" y="312.369006" style="fill: #ced0d6; stroke: #ced0d6; stroke-width: 0.8"/>
      </g>
     </g>
     <g id="text_14">
      <!-- 0.0x -->
      <g style="fill: #ced0d6" transform="translate(16.258125 316.168225) scale(0.1 -0.1)">
       <defs>
        <path id="DejaVuSans-30" d="M 2034 4250 
Q 1547 4250 1301 3770 
Q 1056 3291 1056 2328 
Q 1056 1369 1301 889 
Q 1547 409 2034 409 
Q 2525 409 2770 889 
Q 3016 1369 3016 2328 
Q 3016 3291 2770 3770 
Q 2525 4250 2034 4250 
z
M 2034 4750 
Q 2819 4750 3233 4129 
Q 3647 3509 3647 2328 
Q 3647 1150 3233 529 
Q 2819 -91 2034 -91 
Q 1250 -91 836 529 
Q 422 1150 422 2328 
Q 422 3509 836 4129 
Q 1250 4750 2034 4750 
z
" transform="scale(0.015625)"/>
        <path id="DejaVuSans-2e" d="M 684 794 
L 1344 794 
L 1344 0 
L 684 0 
L 684 794 
z
" transform="scale(0.015625)"/>
        <path id="DejaVuSans-78" d="M 3513 3500 
L 2247 1797 
L 3578 0 
L 2900 0 
L 1881 1375 
L 863 0 
L 184 0 
L 1544 1831 
L 300 3500 
L 978 3500 
L 1906 2253 
L 2834 3500 
L 3513 3500 
z
" transform="scale(0.015625)"/>
       </defs>
       <use xlink:href="#DejaVuSans-30"/>
       <use xlink:href="#DejaVuSans-2e" x="63.623047"/>
       <use xlink:href="#DejaVuSans-30" x="95.410156"/>
       <use xlink:href="#DejaVuSans-78" x="159.033203"/>
      </g>
     </g>
    </g>
    <g id="ytick_2">
     <g id="line2d_15">
      <g>
       <use xlink:href="#m5feccf414c" x="45.08" y="263.772592" style="fill: #ced0d6; stroke: #ced0d6; stroke-width: 0.8"/>
      </g>
     </g>
     <g id="text_15">
      <!-- 5.0x -->
      <g style="fill: #ced0d6" transform="translate(16.258125 267.57181) scale(0.1 -0.1)">
       <defs>
        <path id="DejaVuSans-35" d="M 691 4666 
L 3169 4666 
L 3169 4134 
L 1269 4134 
L 1269 2991 
Q 1406 3038 1543 3061 
Q 1681 3084 1819 3084 
Q 2600 3084 3056 2656 
Q 3513 2228 3513 1497 
Q 3513 744 3044 326 
Q 2575 -91 1722 -91 
Q 1428 -91 1123 -41 
Q 819 9 494 109 
L 494 744 
Q 775 591 1075 516 
Q 1375 441 1709 441 
Q 2250 441 2565 725 
Q 2881 1009 2881 1497 
Q 2881 1984 2565 2268 
Q 2250 2553 1709 2553 
Q 1456 2553 1204 2497 
Q 953 2441 691 2322 
L 691 4666 
z
" transform="scale(0.015625)"/>
       </defs>
       <use xlink:href="#DejaVuSans-35"/>
       <use xlink:href="#DejaVuSans-2e" x="63.623047"/>
       <use xlink:href="#DejaVuSans-30" x="95.410156"/>
       <use xlink:href="#DejaVuSans-78" x="159.033203"/>
      </g>
     </g>
    </g>
    <g id="ytick_3">
     <g id="line2d_16">
      <g>
       <use xlink:href="#m5feccf414c" x="45.08" y="215.176177" style="fill: #ced0d6; stroke: #ced0d6; stroke-width: 0.8"/>
      </g>
     </g>
     <g id="text_16">
      <!-- 10.0x -->
      <g style="fill: #ced0d6" transform="translate(9.895625 218.975396) scale(0.1 -0.1)">
       <defs>
        <path id="DejaVuSans-31" d="M 794 531 
L 1825 531 
L 1825 4091 
L 703 3866 
L 703 4441 
L 1819 4666 
L 2450 4666 
L 2450 531 
L 3481 531 
L 3481 0 
L 794 0 
L 794 531 
z
" transform="scale(0.015625)"/>
       </defs>
       <use xlink:href="#DejaVuSans-31"/>
       <use xlink:href="#DejaVuSans-30" x="63.623047"/>
       <use xlink:href="#DejaVuSans-2e" x="127.246094"/>
       <use xlink:href="#DejaVuSans-30" x="159.033203"/>
       <use xlink:href="#DejaVuSans-78" x="222.65625"/>
      </g>
     </g>
    </g>
    <g id="ytick_4">
     <g id="line2d_17">
      <g>
       <use xlink:href="#m5feccf414c" x="45.08" y="166.579762" style="fill: #ced0d6; stroke: #ced0d6; stroke-width: 0.8"/>
      </g>
     </g>
     <g id="text_17">
      <!-- 15.0x -->
      <g style="fill: #ced0d6" transform="translate(9.895625 170.378981) scale(0.1 -0.1)">
       <use xlink:href="#DejaVuSans-31"/>
       <use xlink:href="#DejaVuSans-35" x="63.623047"/>
       <use xlink:href="#DejaVuSans-2e" x="127.246094"/>
       <use xlink:href="#DejaVuSans-30" x="159.033203"/>
       <use xlink:href="#DejaVuSans-78" x="222.65625"/>
      </g>
     </g>
    </g>
    <g id="ytick_5">
     <g id="line2d_18">
      <g>
       <use xlink:href="#m5feccf414c" x="45.08" y="117.983348" style="fill: #ced0d6; stroke: #ced0d6; stroke-width: 0.8"/>
      </g>
     </g>
     <g id="text_18">
      <!-- 20.0x -->
      <g style="fill: #ced0d6" transform="translate(9.895625 121.782567) scale(0.1 -0.1)">
       <defs>
        <path id="DejaVuSans-32" d="M 1228 531 
L 3431 531 
L 3431 0 
L 469 0 
L 469 531 
Q 828 903 1448 1529 
Q 2069 2156 2228 2338 
Q 2531 2678 2651 2914 
Q 2772 3150 2772 3378 
Q 2772 3750 2511 3984 
Q 2250 4219 1831 4219 
Q 1534 4219 1204 4116 
Q 875 4013 500 3803 
L 500 4441 
Q 881 4594 1212 4672 
Q 1544 4750 1819 4750 
Q 2544 4750 2975 4387 
Q 3406 4025 3406 3419 
Q 3406 3131 3298 2873 
Q 3191 2616 2906 2266 
Q 2828 2175 2409 1742 
Q 1991 1309 1228 531 
z
" transform="scale(0.015625)"/>
       </defs>
       <use xlink:href="#DejaVuSans-32"/>
       <use xlink:href="#DejaVuSans-30" x="63.623047"/>
       <use xlink:href="#DejaVuSans-2e" x="127.246094"/>
       <use xlink:href="#DejaVuSans-30" x="159.033203"/>
       <use xlink:href="#DejaVuSans-78" x="222.65625"/>
      </g>
     </g>
    </g>
    <g id="ytick_6">
     <g id="line2d_19">
      <g>
       <use xlink:href="#m5feccf414c" x="45.08" y="69.386933" style="fill: #ced0d6; stroke: #ced0d6; stroke-width: 0.8"/>
      </g>
     </g>
     <g id="text_19">
      <!-- 25.0x -->
      <g style="fill: #ced0d6" transform="translate(9.895625 73.186152) scale(0.1 -0.1)">
       <use xlink:href="#DejaVuSans-32"/>
       <use xlink:href="#DejaVuSans-35" x="63.623047"/>
       <use xlink:href="#DejaVuSans-2e" x="127.246094"/>
       <use xlink:href="#DejaVuSans-30" x="159.033203"/>
       <use xlink:href="#DejaVuSans-78" x="222.65625"/>
      </g>
     </g>
    </g>
   </g>
   <g id="line2d_20">
    <path d="M 45.08 302.649723 
L 898.387502 302.649723 
" clip-path="url(#p59f56a4dfa)" style="fill: none; stroke-dasharray: 5.55,2.4; stroke-dashoffset: 0; stroke: #1f77b4; stroke-width: 1.5"/>
   </g>
   <g id="patch_52">
    <path d="M 45.08 312.369006 
L 45.08 56.032 
" style="fill: none; stroke: #ced0d6; stroke-width: 0.8; stroke-linejoin: miter; stroke-linecap: square"/>
   </g>
   <g id="patch_53">
    <path d="M 898.387502 312.369006 
L 898.387502 56.032 
" style="fill: none; stroke: #ced0d6; stroke-width: 0.8; stroke-linejoin: miter; stroke-linecap: square"/>
   </g>
   <g id="patch_54">
    <path d="M 45.08 312.369006 
L 898.387502 312.369006 
" style="fill: none; stroke: #ced0d6; stroke-width: 0.8; stroke-linejoin: miter; stroke-linecap: square"/>
   </g>
   <g id="patch_55">
    <path d="M 45.08 56.032 
L 898.387502 56.032 
" style="fill: none; stroke: #ced0d6; stroke-width: 0.8; stroke-linejoin: miter; stroke-linecap: square"/>
   </g>
   <g id="text_20">
    <!-- 2.4M -->
    <g style="fill: #e6edf3" transform="translate(62.448239 298.649747) rotate(-90) scale(0.1 -0.1)">
     <defs>
      <path id="DejaVuSans-34" d="M 2419 4116 
L 825 1625 
L 2419 1625 
L 2419 4116 
z
M 2253 4666 
L 3047 4666 
L 3047 1625 
L 3713 1625 
L 3713 1100 
L 3047 1100 
L 3047 0 
L 2419 0 
L 2419 1100 
L 313 1100 
L 313 1709 
L 2253 4666 
z
" transform="scale(0.015625)"/>
      <path id="DejaVuSans-4d" d="M 628 4666 
L 1569 4666 
L 2759 1491 
L 3956 4666 
L 4897 4666 
L 4897 0 
L 4281 0 
L 4281 4097 
L 3078 897 
L 2444 897 
L 1241 4097 
L 1241 0 
L 628 0 
L 628 4666 
z
" transform="scale(0.015625)"/>
     </defs>
     <use xlink:href="#DejaVuSans-32"/>
     <use xlink:href="#DejaVuSans-2e" x="63.623047"/>
     <use xlink:href="#DejaVuSans-34" x="95.410156"/>
     <use xlink:href="#DejaVuSans-4d" x="159.033203"/>
    </g>
   </g>
   <g id="text_21">
    <!-- 2.2M -->
    <g style="fill: #e6edf3" transform="translate(74.934448 299.649723) rotate(-90) scale(0.1 -0.1)">
     <use xlink:href="#DejaVuSans-32"/>
     <use xlink:href="#DejaVuSans-2e" x="63.623047"/>
     <use xlink:href="#DejaVuSans-32" x="95.410156"/>
     <use xlink:href="#DejaVuSans-4d" x="159.033203"/>
    </g>
   </g>
   <g id="text_22">
    <!-- 8M -->
    <g style="fill: #e6edf3" transform="translate(87.420657 273.31892) rotate(-90) scale(0.1 -0.1)">
     <defs>
      <path id="DejaVuSans-38" d="M 2034 2216 
Q 1584 2216 1326 1975 
Q 1069 1734 1069 1313 
Q 1069 891 1326 650 
Q 1584 409 2034 409 
Q 2484 409 2743 651 
Q 3003 894 3003 1313 
Q 3003 1734 2745 1975 
Q 2488 2216 2034 2216 
z
M 1403 2484 
Q 997 2584 770 2862 
Q 544 3141 544 3541 
Q 544 4100 942 4425 
Q 1341 4750 2034 4750 
Q 2731 4750 3128 4425 
Q 3525 4100 3525 3541 
Q 3525 3141 3298 2862 
Q 3072 2584 2669 2484 
Q 3125 2378 3379 2068 
Q 3634 1759 3634 1313 
Q 3634 634 3220 271 
Q 2806 -91 2034 -91 
Q 1263 -91 848 271 
Q 434 634 434 1313 
Q 434 1759 690 2068 
Q 947 2378 1403 2484 
z
M 1172 3481 
Q 1172 3119 1398 2916 
Q 1625 2713 2034 2713 
Q 2441 2713 2670 2916 
Q 2900 3119 2900 3481 
Q 2900 3844 2670 4047 
Q 2441 4250 2034 4250 
Q 1625 4250 1398 4047 
Q 1172 3844 1172 3481 
z
" transform="scale(0.015625)"/>
     </defs>
     <use xlink:href="#DejaVuSans-38"/>
     <use xlink:href="#DejaVuSans-4d" x="63.623047"/>
    </g>
   </g>
   <g id="text_23">
    <!-- 15M -->
    <g style="fill: #e6edf3" transform="translate(99.906865 241.972034) rotate(-90) scale(0.1 -0.1)">
     <use xlink:href="#DejaVuSans-31"/>
     <use xlink:href="#DejaVuSans-35" x="63.623047"/>
     <use xlink:href="#DejaVuSans-4d" x="127.246094"/>
    </g>
   </g>
   <g id="text_24">
    <!-- 3.4M -->
    <g style="fill: #e6edf3" transform="translate(131.122387 289.762769) rotate(-90) scale(0.1 -0.1)">
     <defs>
      <path id="DejaVuSans-33" d="M 2597 2516 
Q 3050 2419 3304 2112 
Q 3559 1806 3559 1356 
Q 3559 666 3084 287 
Q 2609 -91 1734 -91 
Q 1441 -91 1130 -33 
Q 819 25 488 141 
L 488 750 
Q 750 597 1062 519 
Q 1375 441 1716 441 
Q 2309 441 2620 675 
Q 2931 909 2931 1356 
Q 2931 1769 2642 2001 
Q 2353 2234 1838 2234 
L 1294 2234 
L 1294 2753 
L 1863 2753 
Q 2328 2753 2575 2939 
Q 2822 3125 2822 3475 
Q 2822 3834 2567 4026 
Q 2313 4219 1838 4219 
Q 1578 4219 1281 4162 
Q 984 4106 628 3988 
L 628 4550 
Q 988 4650 1302 4700 
Q 1616 4750 1894 4750 
Q 2613 4750 3031 4423 
Q 3450 4097 3450 3541 
Q 3450 3153 3228 2886 
Q 3006 2619 2597 2516 
z
" transform="scale(0.015625)"/>
     </defs>
     <use xlink:href="#DejaVuSans-33"/>
     <use xlink:href="#DejaVuSans-2e" x="63.623047"/>
     <use xlink:href="#DejaVuSans-34" x="95.410156"/>
     <use xlink:href="#DejaVuSans-4d" x="159.033203"/>
    </g>
   </g>
   <g id="text_25">
    <!-- 1.7M -->
    <g style="fill: #e6edf3" transform="translate(143.608596 299.649723) rotate(-90) scale(0.1 -0.1)">
     <defs>
      <path id="DejaVuSans-37" d="M 525 4666 
L 3525 4666 
L 3525 4397 
L 1831 0 
L 1172 0 
L 2766 4134 
L 525 4134 
L 525 4666 
z
" transform="scale(0.015625)"/>
     </defs>
     <use xlink:href="#DejaVuSans-31"/>
     <use xlink:href="#DejaVuSans-2e" x="63.623047"/>
     <use xlink:href="#DejaVuSans-37" x="95.410156"/>
     <use xlink:href="#DejaVuSans-4d" x="159.033203"/>
    </g>
   </g>
   <g id="text_26">
    <!-- 11M -->
    <g style="fill: #e6edf3" transform="translate(156.094804 246.891688) rotate(-90) scale(0.1 -0.1)">
     <use xlink:href="#DejaVuSans-31"/>
     <use xlink:href="#DejaVuSans-31" x="63.623047"/>
     <use xlink:href="#DejaVuSans-4d" x="127.246094"/>
    </g>
   </g>
   <g id="text_27">
    <!-- 38.9M -->
    <g style="fill: #e6edf3" transform="translate(168.581013 88.232676) rotate(-90) scale(0.1 -0.1)">
     <defs>
      <path id="DejaVuSans-39" d="M 703 97 
L 703 672 
Q 941 559 1184 500 
Q 1428 441 1663 441 
Q 2288 441 2617 861 
Q 2947 1281 2994 2138 
Q 2813 1869 2534 1725 
Q 2256 1581 1919 1581 
Q 1219 1581 811 2004 
Q 403 2428 403 3163 
Q 403 3881 828 4315 
Q 1253 4750 1959 4750 
Q 2769 4750 3195 4129 
Q 3622 3509 3622 2328 
Q 3622 1225 3098 567 
Q 2575 -91 1691 -91 
Q 1453 -91 1209 -44 
Q 966 3 703 97 
z
M 1959 2075 
Q 2384 2075 2632 2365 
Q 2881 2656 2881 3163 
Q 2881 3666 2632 3958 
Q 2384 4250 1959 4250 
Q 1534 4250 1286 3958 
Q 1038 3666 1038 3163 
Q 1038 2656 1286 2365 
Q 1534 2075 1959 2075 
z
" transform="scale(0.015625)"/>
     </defs>
     <use xlink:href="#DejaVuSans-33"/>
     <use xlink:href="#DejaVuSans-38" x="63.623047"/>
     <use xlink:href="#DejaVuSans-2e" x="127.246094"/>
     <use xlink:href="#DejaVuSans-39" x="159.033203"/>
     <use xlink:href="#DejaVuSans-4d" x="222.65625"/>
    </g>
   </g>
   <g id="text_28">
    <!-- 2M -->
    <g style="fill: #e6edf3" transform="translate(199.796535 296.301205) rotate(-90) scale(0.1 -0.1)">
     <use xlink:href="#DejaVuSans-32"/>
     <use xlink:href="#DejaVuSans-4d" x="63.623047"/>
    </g>
   </g>
   <g id="text_29">
    <!-- 1.5M -->
    <g style="fill: #e6edf3" transform="translate(212.282744 299.649723) rotate(-90) scale(0.1 -0.1)">
     <use xlink:href="#DejaVuSans-31"/>
     <use xlink:href="#DejaVuSans-2e" x="63.623047"/>
     <use xlink:href="#DejaVuSans-35" x="95.410156"/>
     <use xlink:href="#DejaVuSans-4d" x="159.033203"/>
    </g>
   </g>
   <g id="text_30">
    <!-- 18.5M -->
    <g style="fill: #e6edf3" transform="translate(224.768952 190.413373) rotate(-90) scale(0.1 -0.1)">
     <use xlink:href="#DejaVuSans-31"/>
     <use xlink:href="#DejaVuSans-38" x="63.623047"/>
     <use xlink:href="#DejaVuSans-2e" x="127.246094"/>
     <use xlink:href="#DejaVuSans-35" x="159.033203"/>
     <use xlink:href="#DejaVuSans-4d" x="222.65625"/>
    </g>
   </g>
   <g id="text_31">
    <!-- 27.4M -->
    <g style="fill: #e6edf3" transform="translate(237.255161 133.15651) rotate(-90) scale(0.1 -0.1)">
     <use xlink:href="#DejaVuSans-32"/>
     <use xlink:href="#DejaVuSans-37" x="63.623047"/>
     <use xlink:href="#DejaVuSans-2e" x="127.246094"/>
     <use xlink:href="#DejaVuSans-34" x="159.033203"/>
     <use xlink:href="#DejaVuSans-4d" x="222.65625"/>
    </g>
   </g>
   <g id="text_32">
    <!-- 2.6M -->
    <g style="fill: #e6edf3" transform="translate(268.470683 304.271621) rotate(-90) scale(0.1 -0.1)">
     <defs>
      <path id="DejaVuSans-36" d="M 2113 2584 
Q 1688 2584 1439 2293 
Q 1191 2003 1191 1497 
Q 1191 994 1439 701 
Q 1688 409 2113 409 
Q 2538 409 2786 701 
Q 3034 994 3034 1497 
Q 3034 2003 2786 2293 
Q 2538 2584 2113 2584 
z
M 3366 4563 
L 3366 3988 
Q 3128 4100 2886 4159 
Q 2644 4219 2406 4219 
Q 1781 4219 1451 3797 
Q 1122 3375 1075 2522 
Q 1259 2794 1537 2939 
Q 1816 3084 2150 3084 
Q 2853 3084 3261 2657 
Q 3669 2231 3669 1497 
Q 3669 778 3244 343 
Q 2819 -91 2113 -91 
Q 1303 -91 875 529 
Q 447 1150 447 2328 
Q 447 3434 972 4092 
Q 1497 4750 2381 4750 
Q 2619 4750 2861 4703 
Q 3103 4656 3366 4563 
z
" transform="scale(0.015625)"/>
     </defs>
     <use xlink:href="#DejaVuSans-32"/>
     <use xlink:href="#DejaVuSans-2e" x="63.623047"/>
     <use xlink:href="#DejaVuSans-36" x="95.410156"/>
     <use xlink:href="#DejaVuSans-4d" x="159.033203"/>
    </g>
   </g>
   <g id="text_33">
    <!-- 4.9M -->
    <g style="fill: #e6edf3" transform="translate(280.956891 299.649723) rotate(-90) scale(0.1 -0.1)">
     <use xlink:href="#DejaVuSans-34"/>
     <use xlink:href="#DejaVuSans-2e" x="63.623047"/>
     <use xlink:href="#DejaVuSans-39" x="95.410156"/>
     <use xlink:href="#DejaVuSans-4d" x="159.033203"/>
    </g>
   </g>
   <g id="text_34">
    <!-- 26.7M -->
    <g style="fill: #e6edf3" transform="translate(293.4431 256.242241) rotate(-90) scale(0.1 -0.1)">
     <use xlink:href="#DejaVuSans-32"/>
     <use xlink:href="#DejaVuSans-36" x="63.623047"/>
     <use xlink:href="#DejaVuSans-2e" x="127.246094"/>
     <use xlink:href="#DejaVuSans-37" x="159.033203"/>
     <use xlink:href="#DejaVuSans-4d" x="222.65625"/>
    </g>
   </g>
   <g id="text_35">
    <!-- 36.7M -->
    <g style="fill: #e6edf3" transform="translate(305.929309 236.401469) rotate(-90) scale(0.1 -0.1)">
     <use xlink:href="#DejaVuSans-33"/>
     <use xlink:href="#DejaVuSans-36" x="63.623047"/>
     <use xlink:href="#DejaVuSans-2e" x="127.246094"/>
     <use xlink:href="#DejaVuSans-37" x="159.033203"/>
     <use xlink:href="#DejaVuSans-4d" x="222.65625"/>
    </g>
   </g>
   <g id="text_36">
    <!-- 53.8K -->
    <g style="fill: #e6edf3" transform="translate(337.14483 308.978488) rotate(-90) scale(0.1 -0.1)">
     <defs>
      <path id="DejaVuSans-4b" d="M 628 4666 
L 1259 4666 
L 1259 2694 
L 3353 4666 
L 4166 4666 
L 1850 2491 
L 4331 0 
L 3500 0 
L 1259 2247 
L 1259 0 
L 628 0 
L 628 4666 
z
" transform="scale(0.015625)"/>
     </defs>
     <use xlink:href="#DejaVuSans-35"/>
     <use xlink:href="#DejaVuSans-33" x="63.623047"/>
     <use xlink:href="#DejaVuSans-2e" x="127.246094"/>
     <use xlink:href="#DejaVuSans-38" x="159.033203"/>
     <use xlink:href="#DejaVuSans-4b" x="222.65625"/>
    </g>
   </g>
   <g id="text_37">
    <!-- 1.3M -->
    <g style="fill: #e6edf3" transform="translate(349.631039 299.649723) rotate(-90) scale(0.1 -0.1)">
     <use xlink:href="#DejaVuSans-31"/>
     <use xlink:href="#DejaVuSans-2e" x="63.623047"/>
     <use xlink:href="#DejaVuSans-33" x="95.410156"/>
     <use xlink:href="#DejaVuSans-4d" x="159.033203"/>
    </g>
   </g>
   <g id="text_38">
    <!-- 10.7M -->
    <g style="fill: #e6edf3" transform="translate(362.117248 231.489998) rotate(-90) scale(0.1 -0.1)">
     <use xlink:href="#DejaVuSans-31"/>
     <use xlink:href="#DejaVuSans-30" x="63.623047"/>
     <use xlink:href="#DejaVuSans-2e" x="127.246094"/>
     <use xlink:href="#DejaVuSans-37" x="159.033203"/>
     <use xlink:href="#DejaVuSans-4d" x="222.65625"/>
    </g>
   </g>
   <g id="text_39">
    <!-- 30.5M -->
    <g style="fill: #e6edf3" transform="translate(374.603457 88.021418) rotate(-90) scale(0.1 -0.1)">
     <use xlink:href="#DejaVuSans-33"/>
     <use xlink:href="#DejaVuSans-30" x="63.623047"/>
     <use xlink:href="#DejaVuSans-2e" x="127.246094"/>
     <use xlink:href="#DejaVuSans-35" x="159.033203"/>
     <use xlink:href="#DejaVuSans-4d" x="222.65625"/>
    </g>
   </g>
   <g id="text_40">
    <!-- 1.9M -->
    <g style="fill: #e6edf3" transform="translate(405.818978 307.415063) rotate(-90) scale(0.1 -0.1)">
     <use xlink:href="#DejaVuSans-31"/>
     <use xlink:href="#DejaVuSans-2e" x="63.623047"/>
     <use xlink:href="#DejaVuSans-39" x="95.410156"/>
     <use xlink:href="#DejaVuSans-4d" x="159.033203"/>
    </g>
   </g>
   <g id="text_41">
    <!-- 9.7M -->
    <g style="fill: #e6edf3" transform="translate(418.305187 299.649723) rotate(-90) scale(0.1 -0.1)">
     <use xlink:href="#DejaVuSans-39"/>
     <use xlink:href="#DejaVuSans-2e" x="63.623047"/>
     <use xlink:href="#DejaVuSans-37" x="95.410156"/>
     <use xlink:href="#DejaVuSans-4d" x="159.033203"/>
    </g>
   </g>
   <g id="text_42">
    <!-- 24.4M -->
    <g style="fill: #e6edf3" transform="translate(430.791396 284.854759) rotate(-90) scale(0.1 -0.1)">
     <use xlink:href="#DejaVuSans-32"/>
     <use xlink:href="#DejaVuSans-34" x="63.623047"/>
     <use xlink:href="#DejaVuSans-2e" x="127.246094"/>
     <use xlink:href="#DejaVuSans-34" x="159.033203"/>
     <use xlink:href="#DejaVuSans-4d" x="222.65625"/>
    </g>
   </g>
   <g id="text_43">
    <!-- 37.2M -->
    <g style="fill: #e6edf3" transform="translate(443.277604 272.005018) rotate(-90) scale(0.1 -0.1)">
     <use xlink:href="#DejaVuSans-33"/>
     <use xlink:href="#DejaVuSans-37" x="63.623047"/>
     <use xlink:href="#DejaVuSans-2e" x="127.246094"/>
     <use xlink:href="#DejaVuSans-32" x="159.033203"/>
     <use xlink:href="#DejaVuSans-4d" x="222.65625"/>
    </g>
   </g>
   <g id="text_44">
    <!-- 1.7M -->
    <g style="fill: #e6edf3" transform="translate(474.493126 293.715679) rotate(-90) scale(0.1 -0.1)">
     <use xlink:href="#DejaVuSans-31"/>
     <use xlink:href="#DejaVuSans-2e" x="63.623047"/>
     <use xlink:href="#DejaVuSans-37" x="95.410156"/>
     <use xlink:href="#DejaVuSans-4d" x="159.033203"/>
    </g>
   </g>
   <g id="text_45">
    <!-- 1M -->
    <g style="fill: #e6edf3" transform="translate(486.979335 299.649723) rotate(-90) scale(0.1 -0.1)">
     <use xlink:href="#DejaVuSans-31"/>
     <use xlink:href="#DejaVuSans-4d" x="63.623047"/>
    </g>
   </g>
   <g id="text_46">
    <!-- 10.3M -->
    <g style="fill: #e6edf3" transform="translate(499.465544 212.116908) rotate(-90) scale(0.1 -0.1)">
     <use xlink:href="#DejaVuSans-31"/>
     <use xlink:href="#DejaVuSans-30" x="63.623047"/>
     <use xlink:href="#DejaVuSans-2e" x="127.246094"/>
     <use xlink:href="#DejaVuSans-33" x="159.033203"/>
     <use xlink:href="#DejaVuSans-4d" x="222.65625"/>
    </g>
   </g>
   <g id="text_47">
    <!-- 12.2M -->
    <g style="fill: #e6edf3" transform="translate(511.951752 193.650307) rotate(-90) scale(0.1 -0.1)">
     <use xlink:href="#DejaVuSans-31"/>
     <use xlink:href="#DejaVuSans-32" x="63.623047"/>
     <use xlink:href="#DejaVuSans-2e" x="127.246094"/>
     <use xlink:href="#DejaVuSans-32" x="159.033203"/>
     <use xlink:href="#DejaVuSans-4d" x="222.65625"/>
    </g>
   </g>
   <g id="text_48">
    <!-- 6M -->
    <g style="fill: #e6edf3" transform="translate(543.167274 299.649723) rotate(-90) scale(0.1 -0.1)">
     <use xlink:href="#DejaVuSans-36"/>
     <use xlink:href="#DejaVuSans-4d" x="63.623047"/>
    </g>
   </g>
   <g id="text_49">
    <!-- 11.4M -->
    <g style="fill: #e6edf3" transform="translate(555.653483 290.770564) rotate(-90) scale(0.1 -0.1)">
     <use xlink:href="#DejaVuSans-31"/>
     <use xlink:href="#DejaVuSans-31" x="63.623047"/>
     <use xlink:href="#DejaVuSans-2e" x="127.246094"/>
     <use xlink:href="#DejaVuSans-34" x="159.033203"/>
     <use xlink:href="#DejaVuSans-4d" x="222.65625"/>
    </g>
   </g>
   <g id="text_50">
    <!-- 34M -->
    <g style="fill: #e6edf3" transform="translate(568.139691 254.067645) rotate(-90) scale(0.1 -0.1)">
     <use xlink:href="#DejaVuSans-33"/>
     <use xlink:href="#DejaVuSans-34" x="63.623047"/>
     <use xlink:href="#DejaVuSans-4d" x="127.246094"/>
    </g>
   </g>
   <g id="text_51">
    <!-- 482.5K -->
    <g style="fill: #e6edf3" transform="translate(599.355213 305.896511) rotate(-90) scale(0.1 -0.1)">
     <use xlink:href="#DejaVuSans-34"/>
     <use xlink:href="#DejaVuSans-38" x="63.623047"/>
     <use xlink:href="#DejaVuSans-32" x="127.246094"/>
     <use xlink:href="#DejaVuSans-2e" x="190.869141"/>
     <use xlink:href="#DejaVuSans-35" x="222.65625"/>
     <use xlink:href="#DejaVuSans-4b" x="286.279297"/>
    </g>
   </g>
   <g id="text_52">
    <!-- 1.4M -->
    <g style="fill: #e6edf3" transform="translate(611.841422 299.649723) rotate(-90) scale(0.1 -0.1)">
     <use xlink:href="#DejaVuSans-31"/>
     <use xlink:href="#DejaVuSans-2e" x="63.623047"/>
     <use xlink:href="#DejaVuSans-34" x="95.410156"/>
     <use xlink:href="#DejaVuSans-4d" x="159.033203"/>
    </g>
   </g>
   <g id="text_53">
    <!-- 9.8M -->
    <g style="fill: #e6edf3" transform="translate(624.32763 239.093828) rotate(-90) scale(0.1 -0.1)">
     <use xlink:href="#DejaVuSans-39"/>
     <use xlink:href="#DejaVuSans-2e" x="63.623047"/>
     <use xlink:href="#DejaVuSans-38" x="95.410156"/>
     <use xlink:href="#DejaVuSans-4d" x="159.033203"/>
    </g>
   </g>
   <g id="text_54">
    <!-- 27.7M -->
    <g style="fill: #e6edf3" transform="translate(636.813839 110.179622) rotate(-90) scale(0.1 -0.1)">
     <use xlink:href="#DejaVuSans-32"/>
     <use xlink:href="#DejaVuSans-37" x="63.623047"/>
     <use xlink:href="#DejaVuSans-2e" x="127.246094"/>
     <use xlink:href="#DejaVuSans-37" x="159.033203"/>
     <use xlink:href="#DejaVuSans-4d" x="222.65625"/>
    </g>
   </g>
   <g id="text_55">
    <!-- 16.2M -->
    <g style="fill: #e6edf3" transform="translate(668.029361 299.338282) rotate(-90) scale(0.1 -0.1)">
     <use xlink:href="#DejaVuSans-31"/>
     <use xlink:href="#DejaVuSans-36" x="63.623047"/>
     <use xlink:href="#DejaVuSans-2e" x="127.246094"/>
     <use xlink:href="#DejaVuSans-32" x="159.033203"/>
     <use xlink:href="#DejaVuSans-4d" x="222.65625"/>
    </g>
   </g>
   <g id="text_56">
    <!-- 15.7M -->
    <g style="fill: #e6edf3" transform="translate(680.51557 299.649723) rotate(-90) scale(0.1 -0.1)">
     <use xlink:href="#DejaVuSans-31"/>
     <use xlink:href="#DejaVuSans-35" x="63.623047"/>
     <use xlink:href="#DejaVuSans-2e" x="127.246094"/>
     <use xlink:href="#DejaVuSans-37" x="159.033203"/>
     <use xlink:href="#DejaVuSans-4d" x="222.65625"/>
    </g>
   </g>
   <g id="text_57">
    <!-- 31.3M -->
    <g style="fill: #e6edf3" transform="translate(693.001778 289.966851) rotate(-90) scale(0.1 -0.1)">
     <use xlink:href="#DejaVuSans-33"/>
     <use xlink:href="#DejaVuSans-31" x="63.623047"/>
     <use xlink:href="#DejaVuSans-2e" x="127.246094"/>
     <use xlink:href="#DejaVuSans-33" x="159.033203"/>
     <use xlink:href="#DejaVuSans-4d" x="222.65625"/>
    </g>
   </g>
   <g id="text_58">
    <!-- 35.1M -->
    <g style="fill: #e6edf3" transform="translate(705.487987 287.646338) rotate(-90) scale(0.1 -0.1)">
     <use xlink:href="#DejaVuSans-33"/>
     <use xlink:href="#DejaVuSans-35" x="63.623047"/>
     <use xlink:href="#DejaVuSans-2e" x="127.246094"/>
     <use xlink:href="#DejaVuSans-31" x="159.033203"/>
     <use xlink:href="#DejaVuSans-4d" x="222.65625"/>
    </g>
   </g>
   <g id="text_59">
    <!-- 15.8M -->
    <g style="fill: #e6edf3" transform="translate(736.703509 295.385952) rotate(-90) scale(0.1 -0.1)">
     <use xlink:href="#DejaVuSans-31"/>
     <use xlink:href="#DejaVuSans-35" x="63.623047"/>
     <use xlink:href="#DejaVuSans-2e" x="127.246094"/>
     <use xlink:href="#DejaVuSans-38" x="159.033203"/>
     <use xlink:href="#DejaVuSans-4d" x="222.65625"/>
    </g>
   </g>
   <g id="text_60">
    <!-- 11M -->
    <g style="fill: #e6edf3" transform="translate(749.189717 299.649723) rotate(-90) scale(0.1 -0.1)">
     <use xlink:href="#DejaVuSans-31"/>
     <use xlink:href="#DejaVuSans-31" x="63.623047"/>
     <use xlink:href="#DejaVuSans-4d" x="127.246094"/>
    </g>
   </g>
   <g id="text_61">
    <!-- 29.9M -->
    <g style="fill: #e6edf3" transform="translate(761.675926 282.885836) rotate(-90) scale(0.1 -0.1)">
     <use xlink:href="#DejaVuSans-32"/>
     <use xlink:href="#DejaVuSans-39" x="63.623047"/>
     <use xlink:href="#DejaVuSans-2e" x="127.246094"/>
     <use xlink:href="#DejaVuSans-39" x="159.033203"/>
     <use xlink:href="#DejaVuSans-4d" x="222.65625"/>
    </g>
   </g>
   <g id="text_62">
    <!-- 39.9M -->
    <g style="fill: #e6edf3" transform="translate(774.162135 274.050351) rotate(-90) scale(0.1 -0.1)">
     <use xlink:href="#DejaVuSans-33"/>
     <use xlink:href="#DejaVuSans-39" x="63.623047"/>
     <use xlink:href="#DejaVuSans-2e" x="127.246094"/>
     <use xlink:href="#DejaVuSans-39" x="159.033203"/>
     <use xlink:href="#DejaVuSans-4d" x="222.65625"/>
    </g>
   </g>
   <g id="text_63">
    <!-- 1.8M -->
    <g style="fill: #e6edf3" transform="translate(805.377657 299.649723) rotate(-90) scale(0.1 -0.1)">
     <use xlink:href="#DejaVuSans-31"/>
     <use xlink:href="#DejaVuSans-2e" x="63.623047"/>
     <use xlink:href="#DejaVuSans-38" x="95.410156"/>
     <use xlink:href="#DejaVuSans-4d" x="159.033203"/>
    </g>
   </g>
   <g id="text_64">
    <!-- 22M -->
    <g style="fill: #e6edf3" transform="translate(817.863865 192.37352) rotate(-90) scale(0.1 -0.1)">
     <use xlink:href="#DejaVuSans-32"/>
     <use xlink:href="#DejaVuSans-32" x="63.623047"/>
     <use xlink:href="#DejaVuSans-4d" x="127.246094"/>
    </g>
   </g>
   <g id="text_65">
    <!-- 31.3M -->
    <g style="fill: #e6edf3" transform="translate(830.350074 142.826026) rotate(-90) scale(0.1 -0.1)">
     <use xlink:href="#DejaVuSans-33"/>
     <use xlink:href="#DejaVuSans-31" x="63.623047"/>
     <use xlink:href="#DejaVuSans-2e" x="127.246094"/>
     <use xlink:href="#DejaVuSans-33" x="159.033203"/>
     <use xlink:href="#DejaVuSans-4d" x="222.65625"/>
    </g>
   </g>
   <g id="text_66">
    <!-- 1.8M -->
    <g style="fill: #e6edf3" transform="translate(861.565596 299.649723) rotate(-90) scale(0.1 -0.1)">
     <use xlink:href="#DejaVuSans-31"/>
     <use xlink:href="#DejaVuSans-2e" x="63.623047"/>
     <use xlink:href="#DejaVuSans-38" x="95.410156"/>
     <use xlink:href="#DejaVuSans-4d" x="159.033203"/>
    </g>
   </g>
   <g id="text_67">
    <!-- 22M -->
    <g style="fill: #e6edf3" transform="translate(874.051804 192.008263) rotate(-90) scale(0.1 -0.1)">
     <use xlink:href="#DejaVuSans-32"/>
     <use xlink:href="#DejaVuSans-32" x="63.623047"/>
     <use xlink:href="#DejaVuSans-4d" x="127.246094"/>
    </g>
   </g>
   <g id="text_68">
    <!-- 31.3M -->
    <g style="fill: #e6edf3" transform="translate(886.538013 142.35702) rotate(-90) scale(0.1 -0.1)">
     <use xlink:href="#DejaVuSans-33"/>
     <use xlink:href="#DejaVuSans-31" x="63.623047"/>
     <use xlink:href="#DejaVuSans-2e" x="127.246094"/>
     <use xlink:href="#DejaVuSans-33" x="159.033203"/>
     <use xlink:href="#DejaVuSans-4d" x="222.65625"/>
    </g>
   </g>
   <g id="text_69">
    <!-- Benchmark - Pure Python Implementation as Baseline -->
    <g style="fill: #e6edf3" transform="translate(309.932501 23.15725) scale(0.12 -0.12)">
     <defs>
      <path id="DejaVuSans-42" d="M 1259 2228 
L 1259 519 
L 2272 519 
Q 2781 519 3026 730 
Q 3272 941 3272 1375 
Q 3272 1813 3026 2020 
Q 2781 2228 2272 2228 
L 1259 2228 
z
M 1259 4147 
L 1259 2741 
L 2194 2741 
Q 2656 2741 2882 2914 
Q 3109 3088 3109 3444 
Q 3109 3797 2882 3972 
Q 2656 4147 2194 4147 
L 1259 4147 
z
M 628 4666 
L 2241 4666 
Q 2963 4666 3353 4366 
Q 3744 4066 3744 3513 
Q 3744 3084 3544 2831 
Q 3344 2578 2956 2516 
Q 3422 2416 3680 2098 
Q 3938 1781 3938 1306 
Q 3938 681 3513 340 
Q 3088 0 2303 0 
L 628 0 
L 628 4666 
z
" transform="scale(0.015625)"/>
      <path id="DejaVuSans-6b" d="M 581 4863 
L 1159 4863 
L 1159 1991 
L 2875 3500 
L 3609 3500 
L 1753 1863 
L 3688 0 
L 2938 0 
L 1159 1709 
L 1159 0 
L 581 0 
L 581 4863 
z
" transform="scale(0.015625)"/>
      <path id="DejaVuSans-2d" d="M 313 2009 
L 1997 2009 
L 1997 1497 
L 313 1497 
L 313 2009 
z
" transform="scale(0.015625)"/>
     </defs>
     <use xlink:href="#DejaVuSans-42"/>
     <use xlink:href="#DejaVuSans-65" x="68.603516"/>
     <use xlink:href="#DejaVuSans-6e" x="130.126953"/>
     <use xlink:href="#DejaVuSans-63" x="193.505859"/>
     <use xlink:href="#DejaVuSans-68" x="248.486328"/>
     <use xlink:href="#DejaVuSans-6d" x="311.865234"/>
     <use xlink:href="#DejaVuSans-61" x="409.277344"/>
     <use xlink:href="#DejaVuSans-72" x="470.556641"/>
     <use xlink:href="#DejaVuSans-6b" x="511.669922"/>
     <use xlink:href="#DejaVuSans-20" x="569.580078"/>
     <use xlink:href="#DejaVuSans-2d" x="601.367188"/>
     <use xlink:href="#DejaVuSans-20" x="637.451172"/>
     <use xlink:href="#DejaVuSans-50" x="669.238281"/>
     <use xlink:href="#DejaVuSans-75" x="727.791016"/>
     <use xlink:href="#DejaVuSans-72" x="791.169922"/>
     <use xlink:href="#DejaVuSans-65" x="830.033203"/>
     <use xlink:href="#DejaVuSans-20" x="891.556641"/>
     <use xlink:href="#DejaVuSans-50" x="923.34375"/>
     <use xlink:href="#DejaVuSans-79" x="983.646484"/>
     <use xlink:href="#DejaVuSans-74" x="1042.826172"/>
     <use xlink:href="#DejaVuSans-68" x="1082.035156"/>
     <use xlink:href="#DejaVuSans-6f" x="1145.414062"/>
     <use xlink:href="#DejaVuSans-6e" x="1206.595703"/>
     <use xlink:href="#DejaVuSans-20" x="1269.974609"/>
     <use xlink:href="#DejaVuSans-49" x="1301.761719"/>
     <use xlink:href="#DejaVuSans-6d" x="1331.253906"/>
     <use xlink:href="#DejaVuSans-70" x="1428.666016"/>
     <use xlink:href="#DejaVuSans-6c" x="1492.142578"/>
     <use xlink:href="#DejaVuSans-65" x="1519.925781"/>
     <use xlink:href="#DejaVuSans-6d" x="1581.449219"/>
     <use xlink:href="#DejaVuSans-65" x="1678.861328"/>
     <use xlink:href="#DejaVuSans-6e" x="1740.384766"/>
     <use xlink:href="#DejaVuSans-74" x="1803.763672"/>
     <use xlink:href="#DejaVuSans-61" x="1842.972656"/>
     <use xlink:href="#DejaVuSans-74" x="1904.251953"/>
     <use xlink:href="#DejaVuSans-69" x="1943.460938"/>
     <use xlink:href="#DejaVuSans-6f" x="1971.244141"/>
     <use xlink:href="#DejaVuSans-6e" x="2032.425781"/>
     <use xlink:href="#DejaVuSans-20" x="2095.804688"/>
     <use xlink:href="#DejaVuSans-61" x="2127.591797"/>
     <use xlink:href="#DejaVuSans-73" x="2188.871094"/>
     <use xlink:href="#DejaVuSans-20" x="2240.970703"/>
     <use xlink:href="#DejaVuSans-42" x="2272.757812"/>
     <use xlink:href="#DejaVuSans-61" x="2341.361328"/>
     <use xlink:href="#DejaVuSans-73" x="2402.640625"/>
     <use xlink:href="#DejaVuSans-65" x="2454.740234"/>
     <use xlink:href="#DejaVuSans-6c" x="2516.263672"/>
     <use xlink:href="#DejaVuSans-69" x="2544.046875"/>
     <use xlink:href="#DejaVuSans-6e" x="2571.830078"/>
     <use xlink:href="#DejaVuSans-65" x="2635.208984"/>
    </g>
    <!-- Operations Per Second -->
    <g style="fill: #e6edf3" transform="translate(403.292501 36.594625) scale(0.12 -0.12)">
     <defs>
      <path id="DejaVuSans-4f" d="M 2522 4238 
Q 1834 4238 1429 3725 
Q 1025 3213 1025 2328 
Q 1025 1447 1429 934 
Q 1834 422 2522 422 
Q 3209 422 3611 934 
Q 4013 1447 4013 2328 
Q 4013 3213 3611 3725 
Q 3209 4238 2522 4238 
z
M 2522 4750 
Q 3503 4750 4090 4092 
Q 4678 3434 4678 2328 
Q 4678 1225 4090 567 
Q 3503 -91 2522 -91 
Q 1538 -91 948 565 
Q 359 1222 359 2328 
Q 359 3434 948 4092 
Q 1538 4750 2522 4750 
z
" transform="scale(0.015625)"/>
     </defs>
     <use xlink:href="#DejaVuSans-4f"/>
     <use xlink:href="#DejaVuSans-70" x="78.710938"/>
     <use xlink:href="#DejaVuSans-65" x="142.1875"/>
     <use xlink:href="#DejaVuSans-72" x="203.710938"/>
     <use xlink:href="#DejaVuSans-61" x="244.824219"/>
     <use xlink:href="#DejaVuSans-74" x="306.103516"/>
     <use xlink:href="#DejaVuSans-69" x="345.3125"/>
     <use xlink:href="#DejaVuSans-6f" x="373.095703"/>
     <use xlink:href="#DejaVuSans-6e" x="434.277344"/>
     <use xlink:href="#DejaVuSans-73" x="497.65625"/>
     <use xlink:href="#DejaVuSans-20" x="549.755859"/>
     <use xlink:href="#DejaVuSans-50" x="581.542969"/>
     <use xlink:href="#DejaVuSans-65" x="638.220703"/>
     <use xlink:href="#DejaVuSans-72" x="699.744141"/>
     <use xlink:href="#DejaVuSans-20" x="740.857422"/>
     <use xlink:href="#DejaVuSans-53" x="772.644531"/>
     <use xlink:href="#DejaVuSans-65" x="836.121094"/>
     <use xlink:href="#DejaVuSans-63" x="897.644531"/>
     <use xlink:href="#DejaVuSans-6f" x="952.625"/>
     <use xlink:href="#DejaVuSans-6e" x="1013.806641"/>
     <use xlink:href="#DejaVuSans-64" x="1077.185547"/>
    </g>
    <!-- 2024/11/05-06:33  CPython 3.12.3  Windows  AMD EPYC 7763 64-Core Processor  (GitHub Actions) -->
    <g style="fill: #e6edf3" transform="translate(170.487814 50.032) scale(0.12 -0.12)">
     <defs>
      <path id="DejaVuSans-2f" d="M 1625 4666 
L 2156 4666 
L 531 -594 
L 0 -594 
L 1625 4666 
z
" transform="scale(0.015625)"/>
      <path id="DejaVuSans-3a" d="M 750 794 
L 1409 794 
L 1409 0 
L 750 0 
L 750 794 
z
M 750 3309 
L 1409 3309 
L 1409 2516 
L 750 2516 
L 750 3309 
z
" transform="scale(0.015625)"/>
      <path id="DejaVuSans-b7" d="M 684 2619 
L 1344 2619 
L 1344 1825 
L 684 1825 
L 684 2619 
z
" transform="scale(0.015625)"/>
      <path id="DejaVuSans-57" d="M 213 4666 
L 850 4666 
L 1831 722 
L 2809 4666 
L 3519 4666 
L 4500 722 
L 5478 4666 
L 6119 4666 
L 4947 0 
L 4153 0 
L 3169 4050 
L 2175 0 
L 1381 0 
L 213 4666 
z
" transform="scale(0.015625)"/>
      <path id="DejaVuSans-59" d="M -13 4666 
L 666 4666 
L 1959 2747 
L 3244 4666 
L 3922 4666 
L 2272 2222 
L 2272 0 
L 1638 0 
L 1638 2222 
L -13 4666 
z
" transform="scale(0.015625)"/>
      <path id="DejaVuSans-28" d="M 1984 4856 
Q 1566 4138 1362 3434 
Q 1159 2731 1159 2009 
Q 1159 1288 1364 580 
Q 1569 -128 1984 -844 
L 1484 -844 
Q 1016 -109 783 600 
Q 550 1309 550 2009 
Q 550 2706 781 3412 
Q 1013 4119 1484 4856 
L 1984 4856 
z
" transform="scale(0.015625)"/>
      <path id="DejaVuSans-48" d="M 628 4666 
L 1259 4666 
L 1259 2753 
L 3553 2753 
L 3553 4666 
L 4184 4666 
L 4184 0 
L 3553 0 
L 3553 2222 
L 1259 2222 
L 1259 0 
L 628 0 
L 628 4666 
z
" transform="scale(0.015625)"/>
      <path id="DejaVuSans-62" d="M 3116 1747 
Q 3116 2381 2855 2742 
Q 2594 3103 2138 3103 
Q 1681 3103 1420 2742 
Q 1159 2381 1159 1747 
Q 1159 1113 1420 752 
Q 1681 391 2138 391 
Q 2594 391 2855 752 
Q 3116 1113 3116 1747 
z
M 1159 2969 
Q 1341 3281 1617 3432 
Q 1894 3584 2278 3584 
Q 2916 3584 3314 3078 
Q 3713 2572 3713 1747 
Q 3713 922 3314 415 
Q 2916 -91 2278 -91 
Q 1894 -91 1617 61 
Q 1341 213 1159 525 
L 1159 0 
L 581 0 
L 581 4863 
L 1159 4863 
L 1159 2969 
z
" transform="scale(0.015625)"/>
      <path id="DejaVuSans-29" d="M 513 4856 
L 1013 4856 
Q 1481 4119 1714 3412 
Q 1947 2706 1947 2009 
Q 1947 1309 1714 600 
Q 1481 -109 1013 -844 
L 513 -844 
Q 928 -128 1133 580 
Q 1338 1288 1338 2009 
Q 1338 2731 1133 3434 
Q 928 4138 513 4856 
z
" transform="scale(0.015625)"/>
     </defs>
     <use xlink:href="#DejaVuSans-32"/>
     <use xlink:href="#DejaVuSans-30" x="63.623047"/>
     <use xlink:href="#DejaVuSans-32" x="127.246094"/>
     <use xlink:href="#DejaVuSans-34" x="190.869141"/>
     <use xlink:href="#DejaVuSans-2f" x="254.492188"/>
     <use xlink:href="#DejaVuSans-31" x="288.183594"/>
     <use xlink:href="#DejaVuSans-31" x="351.806641"/>
     <use xlink:href="#DejaVuSans-2f" x="415.429688"/>
     <use xlink:href="#DejaVuSans-30" x="449.121094"/>
     <use xlink:href="#DejaVuSans-35" x="512.744141"/>
     <use xlink:href="#DejaVuSans-2d" x="576.367188"/>
     <use xlink:href="#DejaVuSans-30" x="612.451172"/>
     <use xlink:href="#DejaVuSans-36" x="676.074219"/>
     <use xlink:href="#DejaVuSans-3a" x="739.697266"/>
     <use xlink:href="#DejaVuSans-33" x="773.388672"/>
     <use xlink:href="#DejaVuSans-33" x="837.011719"/>
     <use xlink:href="#DejaVuSans-20" x="900.634766"/>
     <use xlink:href="#DejaVuSans-b7" x="932.421875"/>
     <use xlink:href="#DejaVuSans-20" x="964.208984"/>
     <use xlink:href="#DejaVuSans-43" x="995.996094"/>
     <use xlink:href="#DejaVuSans-50" x="1065.820312"/>
     <use xlink:href="#DejaVuSans-79" x="1126.123047"/>
     <use xlink:href="#DejaVuSans-74" x="1185.302734"/>
     <use xlink:href="#DejaVuSans-68" x="1224.511719"/>
     <use xlink:href="#DejaVuSans-6f" x="1287.890625"/>
     <use xlink:href="#DejaVuSans-6e" x="1349.072266"/>
     <use xlink:href="#DejaVuSans-20" x="1412.451172"/>
     <use xlink:href="#DejaVuSans-33" x="1444.238281"/>
     <use xlink:href="#DejaVuSans-2e" x="1507.861328"/>
     <use xlink:href="#DejaVuSans-31" x="1539.648438"/>
     <use xlink:href="#DejaVuSans-32" x="1603.271484"/>
     <use xlink:href="#DejaVuSans-2e" x="1666.894531"/>
     <use xlink:href="#DejaVuSans-33" x="1698.681641"/>
     <use xlink:href="#DejaVuSans-20" x="1762.304688"/>
     <use xlink:href="#DejaVuSans-b7" x="1794.091797"/>
     <use xlink:href="#DejaVuSans-20" x="1825.878906"/>
     <use xlink:href="#DejaVuSans-57" x="1857.666016"/>
     <use xlink:href="#DejaVuSans-69" x="1954.292969"/>
     <use xlink:href="#DejaVuSans-6e" x="1982.076172"/>
     <use xlink:href="#DejaVuSans-64" x="2045.455078"/>
     <use xlink:href="#DejaVuSans-6f" x="2108.931641"/>
     <use xlink:href="#DejaVuSans-77" x="2170.113281"/>
     <use xlink:href="#DejaVuSans-73" x="2251.900391"/>
     <use xlink:href="#DejaVuSans-20" x="2304"/>
     <use xlink:href="#DejaVuSans-b7" x="2335.787109"/>
     <use xlink:href="#DejaVuSans-20" x="2367.574219"/>
     <use xlink:href="#DejaVuSans-41" x="2399.361328"/>
     <use xlink:href="#DejaVuSans-4d" x="2467.769531"/>
     <use xlink:href="#DejaVuSans-44" x="2554.048828"/>
     <use xlink:href="#DejaVuSans-20" x="2631.050781"/>
     <use xlink:href="#DejaVuSans-45" x="2662.837891"/>
     <use xlink:href="#DejaVuSans-50" x="2726.021484"/>
     <use xlink:href="#DejaVuSans-59" x="2784.074219"/>
     <use xlink:href="#DejaVuSans-43" x="2839.658203"/>
     <use xlink:href="#DejaVuSans-20" x="2909.482422"/>
     <use xlink:href="#DejaVuSans-37" x="2941.269531"/>
     <use xlink:href="#DejaVuSans-37" x="3004.892578"/>
     <use xlink:href="#DejaVuSans-36" x="3068.515625"/>
     <use xlink:href="#DejaVuSans-33" x="3132.138672"/>
     <use xlink:href="#DejaVuSans-20" x="3195.761719"/>
     <use xlink:href="#DejaVuSans-36" x="3227.548828"/>
     <use xlink:href="#DejaVuSans-34" x="3291.171875"/>
     <use xlink:href="#DejaVuSans-2d" x="3354.794922"/>
     <use xlink:href="#DejaVuSans-43" x="3390.878906"/>
     <use xlink:href="#DejaVuSans-6f" x="3460.703125"/>
     <use xlink:href="#DejaVuSans-72" x="3521.884766"/>
     <use xlink:href="#DejaVuSans-65" x="3560.748047"/>
     <use xlink:href="#DejaVuSans-20" x="3622.271484"/>
     <use xlink:href="#DejaVuSans-50" x="3654.058594"/>
     <use xlink:href="#DejaVuSans-72" x="3712.611328"/>
     <use xlink:href="#DejaVuSans-6f" x="3751.474609"/>
     <use xlink:href="#DejaVuSans-63" x="3812.65625"/>
     <use xlink:href="#DejaVuSans-65" x="3867.636719"/>
     <use xlink:href="#DejaVuSans-73" x="3929.160156"/>
     <use xlink:href="#DejaVuSans-73" x="3981.259766"/>
     <use xlink:href="#DejaVuSans-6f" x="4033.359375"/>
     <use xlink:href="#DejaVuSans-72" x="4094.541016"/>
     <use xlink:href="#DejaVuSans-20" x="4135.654297"/>
     <use xlink:href="#DejaVuSans-20" x="4167.441406"/>
     <use xlink:href="#DejaVuSans-28" x="4199.228516"/>
     <use xlink:href="#DejaVuSans-47" x="4238.242188"/>
     <use xlink:href="#DejaVuSans-69" x="4315.732422"/>
     <use xlink:href="#DejaVuSans-74" x="4343.515625"/>
     <use xlink:href="#DejaVuSans-48" x="4382.724609"/>
     <use xlink:href="#DejaVuSans-75" x="4457.919922"/>
     <use xlink:href="#DejaVuSans-62" x="4521.298828"/>
     <use xlink:href="#DejaVuSans-20" x="4584.775391"/>
     <use xlink:href="#DejaVuSans-41" x="4616.5625"/>
     <use xlink:href="#DejaVuSans-63" x="4683.220703"/>
     <use xlink:href="#DejaVuSans-74" x="4738.201172"/>
     <use xlink:href="#DejaVuSans-69" x="4777.410156"/>
     <use xlink:href="#DejaVuSans-6f" x="4805.193359"/>
     <use xlink:href="#DejaVuSans-6e" x="4866.375"/>
     <use xlink:href="#DejaVuSans-73" x="4929.753906"/>
     <use xlink:href="#DejaVuSans-29" x="4981.853516"/>
    </g>
   </g>
   <g id="legend_1">
    <g id="patch_56">
     <path d="M 52.08 140.422625 
L 144.151875 140.422625 
Q 149.151875 140.422625 149.151875 135.422625 
L 149.151875 63.032 
Q 149.151875 58.032 144.151875 58.032 
L 52.08 58.032 
Q 47.08 58.032 47.08 63.032 
L 47.08 135.422625 
Q 47.08 140.422625 52.08 140.422625 
z
" style="fill: #3d3f42; opacity: 0.5; stroke: #3d3f42; stroke-linejoin: miter"/>
    </g>
    <g id="line2d_21">
     <path d="M 54.08 69.130438 
L 64.08 69.130438 
L 74.08 69.130438 
" style="fill: none; stroke-dasharray: 5.55,2.4; stroke-dashoffset: 0; stroke: #1f77b4; stroke-width: 1.5"/>
    </g>
    <g id="text_70">
     <!-- Baseline -->
     <g style="fill: #e6edf3" transform="translate(82.08 72.630438) scale(0.1 -0.1)">
      <use xlink:href="#DejaVuSans-42"/>
      <use xlink:href="#DejaVuSans-61" x="68.603516"/>
      <use xlink:href="#DejaVuSans-73" x="129.882812"/>
      <use xlink:href="#DejaVuSans-65" x="181.982422"/>
      <use xlink:href="#DejaVuSans-6c" x="243.505859"/>
      <use xlink:href="#DejaVuSans-69" x="271.289062"/>
      <use xlink:href="#DejaVuSans-6e" x="299.072266"/>
      <use xlink:href="#DejaVuSans-65" x="362.451172"/>
     </g>
    </g>
    <g id="patch_57">
     <path d="M 54.08 87.308563 
L 74.08 87.308563 
L 74.08 80.308563 
L 54.08 80.308563 
z
" style="fill: #ff7f0e"/>
    </g>
    <g id="text_71">
     <!-- Numpy -->
     <g style="fill: #e6edf3" transform="translate(82.08 87.308563) scale(0.1 -0.1)">
      <use xlink:href="#DejaVuSans-4e"/>
      <use xlink:href="#DejaVuSans-75" x="74.804688"/>
      <use xlink:href="#DejaVuSans-6d" x="138.183594"/>
      <use xlink:href="#DejaVuSans-70" x="235.595703"/>
      <use xlink:href="#DejaVuSans-79" x="299.072266"/>
     </g>
    </g>
    <g id="patch_58">
     <path d="M 54.08 101.986688 
L 74.08 101.986688 
L 74.08 94.986688 
L 54.08 94.986688 
z
" style="fill: #1f77b4"/>
    </g>
    <g id="text_72">
     <!-- Pure Python -->
     <g style="fill: #e6edf3" transform="translate(82.08 101.986688) scale(0.1 -0.1)">
      <use xlink:href="#DejaVuSans-50"/>
      <use xlink:href="#DejaVuSans-75" x="58.552734"/>
      <use xlink:href="#DejaVuSans-72" x="121.931641"/>
      <use xlink:href="#DejaVuSans-65" x="160.794922"/>
      <use xlink:href="#DejaVuSans-20" x="222.318359"/>
      <use xlink:href="#DejaVuSans-50" x="254.105469"/>
      <use xlink:href="#DejaVuSans-79" x="314.408203"/>
      <use xlink:href="#DejaVuSans-74" x="373.587891"/>
      <use xlink:href="#DejaVuSans-68" x="412.796875"/>
      <use xlink:href="#DejaVuSans-6f" x="476.175781"/>
      <use xlink:href="#DejaVuSans-6e" x="537.357422"/>
     </g>
    </g>
    <g id="patch_59">
     <path d="M 54.08 116.664813 
L 74.08 116.664813 
L 74.08 109.664813 
L 54.08 109.664813 
z
" style="fill: #2ca02c"/>
    </g>
    <g id="text_73">
     <!-- Pygame -->
     <g style="fill: #e6edf3" transform="translate(82.08 116.664813) scale(0.1 -0.1)">
      <use xlink:href="#DejaVuSans-50"/>
      <use xlink:href="#DejaVuSans-79" x="60.302734"/>
      <use xlink:href="#DejaVuSans-67" x="119.482422"/>
      <use xlink:href="#DejaVuSans-61" x="182.958984"/>
      <use xlink:href="#DejaVuSans-6d" x="244.238281"/>
      <use xlink:href="#DejaVuSans-65" x="341.650391"/>
     </g>
    </g>
    <g id="patch_60">
     <path d="M 54.08 131.342938 
L 74.08 131.342938 
L 74.08 124.342938 
L 54.08 124.342938 
z
" style="fill: #9467bd"/>
    </g>
    <g id="text_74">
     <!-- Spatium -->
     <g style="fill: #e6edf3" transform="translate(82.08 131.342938) scale(0.1 -0.1)">
      <use xlink:href="#DejaVuSans-53"/>
      <use xlink:href="#DejaVuSans-70" x="63.476562"/>
      <use xlink:href="#DejaVuSans-61" x="126.953125"/>
      <use xlink:href="#DejaVuSans-74" x="188.232422"/>
      <use xlink:href="#DejaVuSans-69" x="227.441406"/>
      <use xlink:href="#DejaVuSans-75" x="255.224609"/>
      <use xlink:href="#DejaVuSans-6d" x="318.603516"/>
     </g>
    </g>
   </g>
  </g>
 </g>
 <defs>
  <clipPath id="p59f56a4dfa">
   <rect x="45.08" y="56.032" width="853.307502" height="256.337006"/>
  </clipPath>
 </defs>
</svg>
